G04 (created by PCBNEW-RS274X (20100406 SVN-R2508)-final) date 9/22/2010 8:11:36 PM*
G01*
G70*
G90*
%MOIN*%
G04 Gerber Fmt 3.4, Leading zero omitted, Abs format*
%FSLAX34Y34*%
G04 APERTURE LIST*
%ADD10C,0.006000*%
%ADD11C,0.015000*%
%ADD12C,0.060000*%
%ADD13R,0.055000X0.055000*%
%ADD14C,0.055000*%
%ADD15C,0.053000*%
%ADD16C,0.039000*%
%ADD17R,0.070000X0.070000*%
%ADD18C,0.070000*%
%ADD19C,0.035000*%
%ADD20C,0.008000*%
G04 APERTURE END LIST*
G54D10*
G54D11*
X47621Y-34111D02*
X62578Y-34111D01*
X64588Y-34111D02*
X65914Y-34111D01*
X65588Y-34110D02*
X67788Y-34110D01*
X36610Y-34110D02*
X45620Y-34110D01*
X45620Y-34110D02*
X45620Y-35610D01*
X45620Y-35610D02*
X45624Y-35697D01*
X45636Y-35783D01*
X45655Y-35868D01*
X45681Y-35952D01*
X45714Y-36032D01*
X45754Y-36109D01*
X45801Y-36183D01*
X45854Y-36252D01*
X45913Y-36317D01*
X45978Y-36376D01*
X46047Y-36429D01*
X46121Y-36476D01*
X46198Y-36516D01*
X46278Y-36549D01*
X46362Y-36575D01*
X46447Y-36594D01*
X46533Y-36606D01*
X46620Y-36610D01*
X46620Y-36610D02*
X46707Y-36606D01*
X46793Y-36594D01*
X46878Y-36575D01*
X46962Y-36549D01*
X47042Y-36516D01*
X47120Y-36476D01*
X47193Y-36429D01*
X47262Y-36376D01*
X47327Y-36317D01*
X47386Y-36252D01*
X47439Y-36183D01*
X47486Y-36109D01*
X47526Y-36032D01*
X47559Y-35952D01*
X47585Y-35868D01*
X47604Y-35783D01*
X47616Y-35697D01*
X47620Y-35610D01*
X47620Y-35610D02*
X47620Y-34110D01*
X62578Y-34110D02*
X62578Y-35610D01*
X62578Y-35630D02*
X62582Y-35717D01*
X62594Y-35803D01*
X62613Y-35888D01*
X62639Y-35972D01*
X62672Y-36052D01*
X62712Y-36129D01*
X62759Y-36203D01*
X62812Y-36272D01*
X62871Y-36337D01*
X62936Y-36396D01*
X63005Y-36449D01*
X63079Y-36496D01*
X63156Y-36536D01*
X63236Y-36569D01*
X63320Y-36595D01*
X63405Y-36614D01*
X63491Y-36626D01*
X63578Y-36630D01*
X63598Y-36630D02*
X63685Y-36626D01*
X63771Y-36614D01*
X63856Y-36595D01*
X63940Y-36569D01*
X64020Y-36536D01*
X64098Y-36496D01*
X64171Y-36449D01*
X64240Y-36396D01*
X64305Y-36337D01*
X64364Y-36272D01*
X64417Y-36203D01*
X64464Y-36129D01*
X64504Y-36052D01*
X64537Y-35972D01*
X64563Y-35888D01*
X64582Y-35803D01*
X64594Y-35717D01*
X64598Y-35630D01*
X64588Y-35629D02*
X64588Y-34129D01*
X67610Y-34110D02*
X76610Y-34110D01*
X76610Y-34110D02*
X83630Y-50690D01*
X83630Y-50690D02*
X71110Y-54210D01*
X71110Y-54210D02*
X71110Y-57710D01*
X71110Y-57710D02*
X42110Y-57710D01*
X42110Y-57710D02*
X42110Y-54210D01*
X42110Y-54210D02*
X29600Y-50690D01*
X29600Y-50690D02*
X36610Y-34110D01*
G54D12*
X75098Y-34965D03*
X75098Y-35965D03*
X75098Y-36965D03*
X75098Y-37965D03*
X75098Y-38965D03*
X75098Y-39965D03*
X75098Y-40965D03*
X75098Y-41965D03*
X75098Y-42965D03*
X75098Y-43965D03*
X70098Y-43965D03*
X70098Y-42965D03*
X70098Y-41965D03*
X70098Y-40965D03*
X70098Y-39965D03*
X70098Y-38965D03*
X70098Y-37965D03*
X70098Y-36965D03*
X70098Y-35965D03*
X70098Y-34965D03*
G54D13*
X59295Y-41915D03*
G54D14*
X60295Y-41915D03*
X61295Y-41915D03*
X62295Y-41915D03*
X63295Y-41915D03*
X64295Y-41915D03*
X65295Y-41915D03*
X66295Y-41915D03*
X66295Y-44915D03*
X65295Y-44915D03*
X64295Y-44915D03*
X63295Y-44915D03*
X62295Y-44915D03*
X61295Y-44915D03*
X60295Y-44915D03*
X59295Y-44915D03*
G54D13*
X54750Y-43370D03*
G54D14*
X53750Y-43370D03*
X52750Y-43370D03*
X51750Y-43370D03*
X50750Y-43370D03*
X49750Y-43370D03*
X48750Y-43370D03*
X47750Y-43370D03*
X47750Y-40370D03*
X48750Y-40370D03*
X49750Y-40370D03*
X50750Y-40370D03*
X51750Y-40370D03*
X52750Y-40370D03*
X53750Y-40370D03*
X54750Y-40370D03*
G54D13*
X48289Y-45443D03*
G54D14*
X50289Y-45443D03*
G54D12*
X67050Y-52770D03*
X67050Y-46670D03*
X61810Y-46670D03*
X61810Y-52770D03*
G54D15*
X69450Y-51230D03*
X67680Y-51230D03*
X69450Y-48200D03*
X67680Y-48200D03*
G54D16*
X65420Y-45880D03*
X64430Y-45880D03*
X63450Y-45880D03*
X60590Y-50700D03*
X60590Y-49720D03*
X60590Y-48580D03*
G54D12*
X41860Y-43010D03*
X41860Y-36910D03*
X36620Y-36910D03*
X36620Y-43010D03*
G54D15*
X44260Y-41470D03*
X42490Y-41470D03*
X44260Y-38440D03*
X42490Y-38440D03*
G54D16*
X40230Y-36120D03*
X39240Y-36120D03*
X38260Y-36120D03*
X35400Y-40940D03*
X35400Y-39960D03*
X35400Y-38820D03*
G54D17*
X49518Y-56335D03*
G54D18*
X49518Y-54335D03*
G54D12*
X57220Y-37723D03*
X57220Y-35723D03*
X57220Y-36723D03*
X48600Y-37723D03*
X48600Y-35723D03*
X48600Y-36723D03*
G54D14*
X59331Y-57061D03*
X59331Y-54061D03*
X58386Y-57022D03*
X58386Y-54022D03*
G54D13*
X52136Y-56065D03*
G54D14*
X52136Y-57065D03*
G54D13*
X45719Y-42240D03*
G54D14*
X45719Y-41240D03*
X45719Y-40240D03*
G54D13*
X71722Y-48154D03*
G54D14*
X71722Y-49154D03*
X71722Y-50154D03*
G54D13*
X47752Y-44311D03*
G54D14*
X48752Y-44311D03*
X49752Y-44311D03*
X50752Y-44311D03*
G54D13*
X54051Y-56953D03*
G54D14*
X55051Y-56953D03*
X56051Y-56953D03*
X57051Y-56953D03*
X57051Y-53953D03*
X56051Y-53953D03*
X55051Y-53953D03*
X54051Y-53953D03*
G54D13*
X42717Y-55406D03*
G54D14*
X42717Y-54406D03*
X42717Y-53406D03*
X42717Y-52406D03*
X42717Y-51406D03*
X42717Y-50406D03*
X42717Y-49406D03*
X42717Y-48406D03*
X42717Y-47406D03*
X42717Y-46406D03*
G54D12*
X42717Y-45406D03*
G54D13*
X68657Y-40374D03*
G54D14*
X67657Y-40374D03*
X66657Y-40374D03*
X65657Y-40374D03*
X64657Y-40374D03*
X63657Y-40374D03*
X62657Y-40374D03*
X61657Y-40374D03*
X60657Y-40374D03*
G54D13*
X43697Y-46406D03*
G54D14*
X43697Y-47406D03*
X43697Y-48406D03*
X43697Y-49406D03*
X43697Y-50406D03*
X43697Y-51406D03*
X43697Y-52406D03*
X43697Y-53406D03*
X43697Y-54406D03*
X43697Y-55406D03*
X46697Y-55406D03*
X46697Y-54406D03*
X46697Y-53406D03*
X46697Y-52406D03*
X46697Y-51406D03*
X46697Y-50406D03*
X46697Y-49406D03*
X46697Y-48406D03*
X46697Y-47406D03*
X46697Y-46406D03*
G54D13*
X62100Y-56982D03*
G54D14*
X63100Y-56982D03*
X64100Y-56982D03*
X65100Y-56982D03*
X66100Y-56982D03*
X67100Y-56982D03*
X68100Y-56982D03*
X69100Y-56982D03*
X69100Y-53982D03*
X68100Y-53982D03*
X67100Y-53982D03*
X66100Y-53982D03*
X65100Y-53982D03*
X64100Y-53982D03*
X63100Y-53982D03*
X62100Y-53982D03*
G54D13*
X35947Y-51024D03*
G54D14*
X36947Y-51024D03*
G54D13*
X75553Y-51329D03*
G54D14*
X76553Y-51329D03*
G54D13*
X58780Y-34942D03*
G54D14*
X59780Y-34942D03*
X60780Y-34942D03*
X61780Y-34942D03*
X41486Y-48094D03*
X41486Y-45094D03*
G54D13*
X42945Y-34980D03*
G54D14*
X43945Y-34980D03*
G54D13*
X59657Y-39224D03*
G54D14*
X60657Y-39224D03*
X61657Y-39224D03*
X62657Y-39224D03*
X63657Y-39224D03*
X64657Y-39224D03*
X65657Y-39224D03*
X66657Y-39224D03*
X67657Y-39224D03*
X68657Y-39224D03*
G54D19*
X53550Y-50900D03*
X54050Y-52250D03*
X45750Y-51100D03*
X49750Y-50850D03*
X51100Y-50900D03*
X58600Y-50500D03*
X45750Y-47100D03*
X47400Y-38900D03*
X54600Y-44100D03*
X36750Y-40150D03*
X53700Y-42450D03*
X58400Y-56400D03*
X61150Y-47500D03*
X55550Y-48550D03*
X63900Y-44000D03*
X50000Y-51350D03*
X58650Y-44900D03*
X64450Y-46400D03*
X55550Y-49700D03*
X64250Y-41300D03*
X67200Y-54900D03*
X59114Y-53165D03*
X62900Y-44000D03*
X61950Y-45900D03*
X54200Y-49350D03*
X42500Y-36850D03*
X53600Y-39550D03*
X41700Y-36050D03*
X62800Y-55300D03*
X47700Y-52850D03*
X48750Y-53900D03*
X56000Y-55350D03*
X55450Y-55900D03*
X58542Y-51446D03*
X53700Y-45300D03*
X43100Y-43500D03*
X59200Y-38100D03*
X57500Y-39800D03*
X55000Y-44900D03*
X56500Y-39250D03*
X52600Y-48300D03*
X58350Y-46850D03*
X57800Y-44550D03*
X59850Y-49350D03*
X57800Y-46300D03*
X52650Y-50900D03*
X51100Y-49050D03*
X51200Y-45700D03*
X51100Y-46450D03*
X51650Y-47800D03*
X49700Y-46850D03*
X50650Y-47000D03*
X51100Y-48400D03*
X55550Y-47450D03*
X61700Y-48550D03*
X56100Y-48000D03*
X52600Y-47800D03*
X61150Y-48000D03*
X59050Y-45500D03*
X61150Y-46700D03*
X59850Y-46300D03*
X52250Y-52250D03*
X52050Y-49450D03*
X60900Y-35850D03*
X55600Y-43800D03*
X63400Y-37250D03*
X57450Y-39300D03*
X51550Y-52600D03*
X52050Y-48300D03*
X49650Y-48800D03*
X49750Y-48050D03*
X66250Y-41300D03*
X50650Y-52000D03*
X65250Y-41300D03*
G54D20*
X57750Y-57000D02*
X57250Y-56500D01*
X58400Y-57000D02*
X57750Y-57000D01*
X56600Y-56500D02*
X54050Y-53950D01*
X57250Y-56500D02*
X56600Y-56500D01*
X54050Y-51400D02*
X53550Y-50900D01*
X54050Y-52250D02*
X54050Y-51400D01*
X46500Y-51850D02*
X46900Y-51850D01*
X45750Y-51100D02*
X46500Y-51850D01*
X46900Y-51850D02*
X47900Y-50850D01*
X47900Y-50850D02*
X49750Y-50850D01*
X59900Y-45500D02*
X64600Y-45500D01*
X65400Y-45900D02*
X65000Y-45900D01*
X64600Y-45500D02*
X65000Y-45900D01*
X59300Y-44900D02*
X59900Y-45500D01*
X59300Y-44900D02*
X59295Y-44915D01*
X54051Y-53953D02*
X54050Y-53950D01*
X58400Y-57000D02*
X58386Y-57022D01*
X71722Y-48154D02*
X71700Y-48150D01*
X71700Y-48150D02*
X69450Y-45900D01*
X69450Y-45900D02*
X65400Y-45900D01*
X65400Y-45900D02*
X65420Y-45880D01*
X54750Y-40350D02*
X54750Y-40370D01*
X58400Y-57000D02*
X58450Y-57050D01*
X59350Y-57050D02*
X59331Y-57061D01*
X58450Y-57050D02*
X59350Y-57050D01*
X53750Y-40370D02*
X53750Y-40350D01*
X53750Y-40350D02*
X54750Y-40350D01*
X53450Y-53950D02*
X54050Y-53950D01*
X51100Y-51600D02*
X53450Y-53950D01*
X51100Y-50900D02*
X51100Y-51600D01*
X62850Y-54400D02*
X68700Y-54400D01*
X62100Y-53982D02*
X62100Y-54000D01*
X62450Y-54000D02*
X62100Y-54000D01*
X69100Y-54000D02*
X68700Y-54400D01*
X69100Y-54000D02*
X69100Y-53982D01*
X62450Y-54000D02*
X62850Y-54400D01*
X53550Y-50350D02*
X53850Y-50350D01*
X54000Y-50500D02*
X58600Y-50500D01*
X53850Y-50350D02*
X54000Y-50500D01*
X51250Y-48050D02*
X53550Y-50350D01*
X45750Y-47100D02*
X46500Y-47850D01*
X47050Y-47700D02*
X49900Y-47700D01*
X46500Y-47850D02*
X46900Y-47850D01*
X50250Y-48050D02*
X51250Y-48050D01*
X46900Y-47850D02*
X47050Y-47700D01*
X49900Y-47700D02*
X50250Y-48050D01*
X48600Y-37723D02*
X48600Y-37700D01*
X47400Y-38900D02*
X48600Y-37700D01*
X73600Y-42450D02*
X69900Y-42450D01*
X60657Y-39224D02*
X60650Y-39200D01*
X60650Y-39200D02*
X59650Y-39200D01*
X59650Y-39200D02*
X59657Y-39224D01*
X53491Y-39950D02*
X53950Y-39950D01*
X53091Y-40350D02*
X53491Y-39950D01*
X57200Y-36700D02*
X53950Y-39950D01*
X57200Y-36700D02*
X57220Y-36723D01*
X76450Y-51350D02*
X76550Y-51350D01*
X38250Y-36100D02*
X38650Y-36500D01*
X47150Y-36850D02*
X43000Y-36850D01*
X47277Y-36723D02*
X48600Y-36723D01*
X47150Y-36850D02*
X47277Y-36723D01*
X42600Y-36450D02*
X43000Y-36850D01*
X69900Y-42450D02*
X69350Y-41900D01*
X66300Y-41900D02*
X69350Y-41900D01*
X75100Y-43950D02*
X75098Y-43965D01*
X75100Y-43950D02*
X73600Y-42450D01*
X40300Y-36500D02*
X40350Y-36450D01*
X48150Y-39950D02*
X52000Y-39950D01*
X52750Y-40350D02*
X52400Y-40350D01*
X52000Y-39950D02*
X52400Y-40350D01*
X48150Y-39950D02*
X47750Y-40350D01*
X52750Y-40350D02*
X53091Y-40350D01*
X38260Y-36120D02*
X38250Y-36100D01*
X38250Y-36100D02*
X39350Y-35000D01*
X42950Y-35000D02*
X42945Y-34980D01*
X39350Y-35000D02*
X42950Y-35000D01*
X52750Y-40350D02*
X52750Y-40370D01*
X36750Y-40150D02*
X35400Y-38800D01*
X38650Y-36500D02*
X40300Y-36500D01*
X54300Y-43050D02*
X53700Y-42450D01*
X54300Y-43800D02*
X54300Y-43050D01*
X54600Y-44100D02*
X54300Y-43800D01*
X40350Y-36450D02*
X42600Y-36450D01*
X35400Y-38820D02*
X35400Y-38800D01*
X71722Y-50154D02*
X71700Y-50150D01*
X71700Y-50150D02*
X72450Y-50900D01*
X72450Y-50900D02*
X76000Y-50900D01*
X76000Y-50900D02*
X76450Y-51350D01*
X76550Y-51350D02*
X76553Y-51329D01*
X65100Y-56982D02*
X65100Y-57000D01*
X65100Y-57000D02*
X64500Y-56400D01*
X64500Y-56400D02*
X58400Y-56400D01*
X65100Y-57000D02*
X66100Y-57000D01*
X66100Y-57000D02*
X66100Y-56982D01*
X66100Y-53982D02*
X66100Y-54000D01*
X66100Y-54000D02*
X65100Y-54000D01*
X65100Y-54000D02*
X65100Y-53982D01*
X63450Y-45880D02*
X63450Y-45900D01*
X63450Y-45900D02*
X61850Y-47500D01*
X61850Y-47500D02*
X61150Y-47500D01*
X38250Y-36100D02*
X35550Y-38800D01*
X35550Y-38800D02*
X35400Y-38800D01*
X52136Y-56065D02*
X52150Y-56050D01*
X52150Y-56050D02*
X50450Y-54350D01*
X50450Y-54350D02*
X49500Y-54350D01*
X49500Y-54350D02*
X49518Y-54335D01*
X52150Y-56050D02*
X53050Y-56950D01*
X53050Y-56950D02*
X54050Y-56950D01*
X54050Y-56950D02*
X54051Y-56953D01*
X47750Y-40370D02*
X47750Y-40350D01*
X47750Y-40350D02*
X47650Y-40250D01*
X45700Y-40250D02*
X45719Y-40240D01*
X47650Y-40250D02*
X45700Y-40250D01*
X56051Y-56953D02*
X56050Y-56950D01*
X56050Y-56950D02*
X57050Y-56950D01*
X57050Y-56950D02*
X57051Y-56953D01*
X54050Y-56950D02*
X55050Y-56950D01*
X55050Y-56950D02*
X55051Y-56953D01*
X56050Y-56950D02*
X55050Y-56950D01*
X60590Y-48580D02*
X60600Y-48600D01*
X60600Y-48600D02*
X60550Y-48550D01*
X60550Y-48550D02*
X55550Y-48550D01*
X63900Y-44000D02*
X66000Y-41900D01*
X66000Y-41900D02*
X66300Y-41900D01*
X66300Y-41900D02*
X66295Y-41915D01*
X42717Y-49406D02*
X42700Y-49400D01*
X42700Y-49400D02*
X43700Y-49400D01*
X43700Y-49400D02*
X43697Y-49406D01*
X42700Y-51400D02*
X43700Y-51400D01*
X43700Y-51400D02*
X43697Y-51406D01*
X42717Y-51406D02*
X42700Y-51400D01*
X42700Y-53400D02*
X42717Y-53406D01*
X43697Y-53406D02*
X43700Y-53400D01*
X43700Y-53400D02*
X42700Y-53400D01*
X42717Y-55406D02*
X42700Y-55400D01*
X42700Y-55400D02*
X43700Y-55400D01*
X43700Y-55400D02*
X43697Y-55406D01*
X46700Y-54400D02*
X49750Y-51350D01*
X49750Y-51350D02*
X50000Y-51350D01*
X46697Y-54406D02*
X46700Y-54400D01*
X61200Y-42350D02*
X63500Y-42350D01*
X58650Y-44900D02*
X61200Y-42350D01*
X63500Y-42350D02*
X63950Y-41900D01*
X63950Y-41900D02*
X64300Y-41900D01*
X64300Y-41900D02*
X64295Y-41915D01*
X55550Y-49700D02*
X56300Y-48950D01*
X63300Y-46400D02*
X64450Y-46400D01*
X56300Y-48950D02*
X60750Y-48950D01*
X60750Y-48950D02*
X63300Y-46400D01*
X64700Y-41300D02*
X64250Y-41300D01*
X65650Y-40350D02*
X64700Y-41300D01*
X65650Y-40350D02*
X65657Y-40374D01*
X60850Y-54900D02*
X67200Y-54900D01*
X59350Y-53400D02*
X59349Y-53400D01*
X59349Y-53400D02*
X59114Y-53165D01*
X59350Y-53400D02*
X60850Y-54900D01*
X62900Y-44000D02*
X65000Y-41900D01*
X57650Y-45900D02*
X61950Y-45900D01*
X65000Y-41900D02*
X65300Y-41900D01*
X65295Y-41915D02*
X65300Y-41900D01*
X54200Y-49350D02*
X57650Y-45900D01*
X46000Y-39550D02*
X44450Y-38000D01*
X39250Y-36100D02*
X39600Y-35750D01*
X42500Y-36850D02*
X43650Y-38000D01*
X40400Y-35750D02*
X40700Y-36050D01*
X40700Y-36050D02*
X41700Y-36050D01*
X39600Y-35750D02*
X40400Y-35750D01*
X39250Y-36100D02*
X39240Y-36120D01*
X43650Y-38000D02*
X44450Y-38000D01*
X46000Y-39550D02*
X53600Y-39550D01*
X49080Y-42950D02*
X49200Y-43070D01*
X46450Y-41050D02*
X48350Y-42950D01*
X46200Y-41050D02*
X46450Y-41050D01*
X35400Y-39950D02*
X36250Y-40800D01*
X35400Y-39950D02*
X35400Y-39960D01*
X45950Y-40800D02*
X46200Y-41050D01*
X49200Y-43500D02*
X49500Y-43800D01*
X49500Y-43800D02*
X53019Y-43800D01*
X53469Y-43350D02*
X53019Y-43800D01*
X49200Y-43070D02*
X49200Y-43500D01*
X48350Y-42950D02*
X49080Y-42950D01*
X53469Y-43350D02*
X53750Y-43350D01*
X53750Y-43350D02*
X53750Y-43370D01*
X36250Y-40800D02*
X45950Y-40800D01*
X62200Y-40500D02*
X62200Y-40111D01*
X60295Y-41915D02*
X60300Y-41900D01*
X60650Y-41900D02*
X60300Y-41900D01*
X61050Y-41500D02*
X60650Y-41900D01*
X61200Y-41500D02*
X61050Y-41500D01*
X62200Y-40500D02*
X61200Y-41500D01*
X63650Y-40350D02*
X63237Y-39937D01*
X63650Y-40350D02*
X63657Y-40374D01*
X62374Y-39937D02*
X63237Y-39937D01*
X62200Y-40111D02*
X62374Y-39937D01*
X36250Y-51000D02*
X35950Y-51000D01*
X47700Y-52850D02*
X46500Y-52850D01*
X42100Y-51450D02*
X36700Y-51450D01*
X62800Y-55300D02*
X62750Y-55350D01*
X62750Y-55350D02*
X56000Y-55350D01*
X55050Y-55900D02*
X52950Y-53800D01*
X45500Y-51850D02*
X42500Y-51850D01*
X48850Y-53800D02*
X48750Y-53900D01*
X52950Y-53800D02*
X48850Y-53800D01*
X46500Y-52850D02*
X45500Y-51850D01*
X55450Y-55900D02*
X55050Y-55900D01*
X42500Y-51850D02*
X42100Y-51450D01*
X36700Y-51450D02*
X36250Y-51000D01*
X35950Y-51000D02*
X35947Y-51024D01*
X69684Y-51650D02*
X69450Y-51650D01*
X67100Y-54000D02*
X69450Y-51650D01*
X75532Y-51350D02*
X75553Y-51329D01*
X69984Y-51350D02*
X75532Y-51350D01*
X69684Y-51650D02*
X69984Y-51350D01*
X67100Y-54000D02*
X67100Y-53982D01*
X62350Y-53250D02*
X61597Y-53250D01*
X63100Y-53982D02*
X63100Y-54000D01*
X63100Y-54000D02*
X62350Y-53250D01*
X61597Y-53250D02*
X59794Y-51447D01*
X58541Y-51447D02*
X58542Y-51446D01*
X59794Y-51447D02*
X58541Y-51447D01*
X41486Y-45094D02*
X41500Y-45100D01*
X47002Y-46050D02*
X51300Y-46050D01*
X52100Y-45300D02*
X53700Y-45300D01*
X51400Y-46000D02*
X52100Y-45300D01*
X51350Y-46000D02*
X51400Y-46000D01*
X41500Y-45100D02*
X43100Y-43500D01*
X51300Y-46050D02*
X51350Y-46000D01*
X42350Y-45950D02*
X41500Y-45100D01*
X47002Y-46050D02*
X46902Y-45950D01*
X42350Y-45950D02*
X46902Y-45950D01*
X42700Y-54400D02*
X43700Y-54400D01*
X42717Y-54406D02*
X42700Y-54400D01*
X43700Y-54400D02*
X43697Y-54406D01*
X42717Y-52406D02*
X42700Y-52400D01*
X43700Y-52400D02*
X43697Y-52406D01*
X42700Y-52400D02*
X43700Y-52400D01*
X42700Y-50400D02*
X43700Y-50400D01*
X43700Y-50400D02*
X43697Y-50406D01*
X42717Y-50406D02*
X42700Y-50400D01*
X42717Y-48406D02*
X42700Y-48400D01*
X43700Y-48400D02*
X43697Y-48406D01*
X42700Y-48400D02*
X43700Y-48400D01*
X42717Y-46406D02*
X42700Y-46400D01*
X43700Y-46400D02*
X43697Y-46406D01*
X42700Y-46400D02*
X43700Y-46400D01*
X43700Y-47400D02*
X42700Y-47400D01*
X42700Y-47400D02*
X42717Y-47406D01*
X43697Y-47406D02*
X43700Y-47400D01*
X59200Y-38100D02*
X57500Y-39800D01*
X55000Y-44900D02*
X52250Y-47650D01*
X52250Y-47950D02*
X52600Y-48300D01*
X56500Y-39250D02*
X60800Y-34950D01*
X63000Y-36850D02*
X61100Y-34950D01*
X69500Y-36850D02*
X63000Y-36850D01*
X60800Y-34950D02*
X61100Y-34950D01*
X69850Y-36500D02*
X69500Y-36850D01*
X75100Y-35950D02*
X75098Y-35965D01*
X75100Y-35950D02*
X74550Y-36500D01*
X74550Y-36500D02*
X69850Y-36500D01*
X60780Y-34942D02*
X60800Y-34950D01*
X52250Y-47950D02*
X52250Y-47650D01*
X55799Y-42749D02*
X57600Y-44550D01*
X51750Y-43350D02*
X51750Y-43370D01*
X60200Y-49700D02*
X60600Y-49700D01*
X59850Y-49350D02*
X60200Y-49700D01*
X57600Y-44550D02*
X57800Y-44550D01*
X53200Y-41900D02*
X54000Y-41900D01*
X57800Y-46300D02*
X58350Y-46850D01*
X54000Y-41900D02*
X54849Y-42749D01*
X51750Y-43350D02*
X53200Y-41900D01*
X54849Y-42749D02*
X55799Y-42749D01*
X60590Y-49720D02*
X60600Y-49700D01*
X50750Y-40370D02*
X50750Y-40350D01*
X49750Y-40350D02*
X49750Y-40370D01*
X50750Y-40350D02*
X49750Y-40350D01*
X53700Y-50550D02*
X53400Y-50550D01*
X53050Y-50900D02*
X52650Y-50900D01*
X53400Y-50550D02*
X53050Y-50900D01*
X57050Y-53900D02*
X53700Y-50550D01*
X57050Y-53900D02*
X57050Y-53950D01*
X57051Y-53953D02*
X57050Y-53950D01*
X57050Y-53950D02*
X57400Y-53600D01*
X59050Y-54050D02*
X59350Y-54050D01*
X57400Y-53600D02*
X58600Y-53600D01*
X58600Y-53600D02*
X59050Y-54050D01*
X59350Y-54050D02*
X59331Y-54061D01*
X52150Y-57050D02*
X51450Y-56350D01*
X52136Y-57065D02*
X52150Y-57050D01*
X49500Y-56350D02*
X49518Y-56335D01*
X51450Y-56350D02*
X49500Y-56350D01*
X57200Y-35700D02*
X57220Y-35723D01*
X48600Y-35700D02*
X57200Y-35700D01*
X48600Y-35723D02*
X48600Y-35700D01*
X46700Y-51400D02*
X48950Y-49150D01*
X49895Y-49050D02*
X51100Y-49050D01*
X49895Y-49050D02*
X49795Y-49150D01*
X46697Y-51406D02*
X46700Y-51400D01*
X49795Y-49150D02*
X48950Y-49150D01*
X48900Y-43800D02*
X48550Y-43800D01*
X48300Y-43550D02*
X48550Y-43800D01*
X45700Y-41250D02*
X45719Y-41240D01*
X48300Y-43250D02*
X46300Y-41250D01*
X49300Y-44200D02*
X48900Y-43800D01*
X51200Y-45700D02*
X50250Y-44750D01*
X46300Y-41250D02*
X45700Y-41250D01*
X49300Y-44599D02*
X49451Y-44750D01*
X49451Y-44750D02*
X50250Y-44750D01*
X48300Y-43250D02*
X48300Y-43550D01*
X49300Y-44200D02*
X49300Y-44599D01*
X46750Y-46450D02*
X51100Y-46450D01*
X46697Y-46406D02*
X46700Y-46400D01*
X46700Y-46400D02*
X46750Y-46450D01*
X51650Y-47500D02*
X50800Y-46650D01*
X50800Y-46650D02*
X50500Y-46650D01*
X51650Y-47800D02*
X51650Y-47500D01*
X50300Y-46850D02*
X49700Y-46850D01*
X50500Y-46650D02*
X50300Y-46850D01*
X46700Y-47400D02*
X46697Y-47406D01*
X50250Y-47400D02*
X46700Y-47400D01*
X50650Y-47000D02*
X50250Y-47400D01*
X46697Y-49406D02*
X46700Y-49400D01*
X47700Y-48400D02*
X51100Y-48400D01*
X46700Y-49400D02*
X47700Y-48400D01*
X67299Y-48650D02*
X71200Y-48650D01*
X67199Y-48550D02*
X67299Y-48650D01*
X71700Y-49150D02*
X71722Y-49154D01*
X71700Y-49150D02*
X71200Y-48650D01*
X67199Y-48550D02*
X61700Y-48550D01*
X55550Y-47450D02*
X55200Y-47800D01*
X61150Y-48000D02*
X56100Y-48000D01*
X55200Y-47800D02*
X52600Y-47800D01*
X53550Y-42100D02*
X53850Y-42100D01*
X59850Y-46300D02*
X60250Y-46700D01*
X60250Y-46700D02*
X61150Y-46700D01*
X58200Y-45500D02*
X59050Y-45500D01*
X54700Y-42950D02*
X55650Y-42950D01*
X52750Y-42900D02*
X53550Y-42100D01*
X53850Y-42100D02*
X54700Y-42950D01*
X55650Y-42950D02*
X58200Y-45500D01*
X52750Y-42900D02*
X52750Y-43370D01*
X56500Y-54400D02*
X57200Y-54400D01*
X56050Y-53950D02*
X56500Y-54400D01*
X57250Y-54350D02*
X57300Y-54350D01*
X57300Y-54350D02*
X57650Y-54000D01*
X57650Y-54000D02*
X58400Y-54000D01*
X58400Y-54000D02*
X58386Y-54022D01*
X56051Y-53953D02*
X56050Y-53950D01*
X53550Y-52250D02*
X52250Y-52250D01*
X53900Y-52600D02*
X53550Y-52250D01*
X54700Y-52600D02*
X53900Y-52600D01*
X56050Y-53950D02*
X54700Y-52600D01*
X57200Y-54400D02*
X57250Y-54350D01*
X60900Y-35850D02*
X57450Y-39300D01*
X54650Y-44900D02*
X52050Y-47500D01*
X55600Y-43800D02*
X54650Y-44750D01*
X52050Y-49450D02*
X50750Y-50750D01*
X74600Y-37450D02*
X69900Y-37450D01*
X75100Y-36950D02*
X75098Y-36965D01*
X75100Y-36950D02*
X74600Y-37450D01*
X69900Y-37450D02*
X69700Y-37250D01*
X69700Y-37250D02*
X63400Y-37250D01*
X54650Y-44900D02*
X54650Y-44750D01*
X51000Y-52050D02*
X51550Y-52600D01*
X51000Y-51850D02*
X51000Y-52050D01*
X52050Y-48300D02*
X52050Y-47500D01*
X51000Y-51850D02*
X50750Y-51600D01*
X50750Y-51600D02*
X50750Y-50750D01*
X46697Y-50406D02*
X46700Y-50400D01*
X48300Y-48800D02*
X49650Y-48800D01*
X46700Y-50400D02*
X48300Y-48800D01*
X46697Y-48406D02*
X46700Y-48400D01*
X47050Y-48050D02*
X49750Y-48050D01*
X46700Y-48400D02*
X47050Y-48050D01*
X66700Y-41300D02*
X66250Y-41300D01*
X67650Y-40350D02*
X66700Y-41300D01*
X67650Y-40350D02*
X67657Y-40374D01*
X50100Y-52000D02*
X50650Y-52000D01*
X46697Y-55406D02*
X46700Y-55400D01*
X46700Y-55400D02*
X50100Y-52000D01*
X62650Y-40550D02*
X61300Y-41900D01*
X61300Y-41900D02*
X61295Y-41915D01*
X62657Y-40374D02*
X62650Y-40350D01*
X62650Y-40350D02*
X62650Y-40550D01*
X61200Y-39957D02*
X61200Y-40500D01*
X59295Y-41915D02*
X59300Y-41900D01*
X59650Y-41900D02*
X59300Y-41900D01*
X60204Y-41346D02*
X59650Y-41900D01*
X60354Y-41346D02*
X60204Y-41346D01*
X61200Y-40500D02*
X60354Y-41346D01*
X61407Y-39750D02*
X61200Y-39957D01*
X64650Y-40350D02*
X64657Y-40374D01*
X64650Y-40350D02*
X64050Y-39750D01*
X64050Y-39750D02*
X61407Y-39750D01*
X65700Y-41300D02*
X65250Y-41300D01*
X66650Y-40350D02*
X65700Y-41300D01*
X66650Y-40350D02*
X66657Y-40374D01*
M02*
