G04 (created by PCBNEW-RS274X (20100406 SVN-R2508)-final) date 9/22/2010 8:11:36 PM*
G01*
G70*
G90*
%MOIN*%
G04 Gerber Fmt 3.4, Leading zero omitted, Abs format*
%FSLAX34Y34*%
G04 APERTURE LIST*
%ADD10C,0.006000*%
%ADD11C,0.015000*%
%ADD12C,0.012000*%
%ADD13C,0.010000*%
%ADD14C,0.008000*%
%ADD15C,0.007100*%
%ADD16C,0.008300*%
%ADD17C,0.007500*%
%ADD18C,0.006700*%
G04 APERTURE END LIST*
G54D10*
G54D11*
X47621Y-34111D02*
X62578Y-34111D01*
X64588Y-34111D02*
X65914Y-34111D01*
X65588Y-34110D02*
X67788Y-34110D01*
X36610Y-34110D02*
X45620Y-34110D01*
X45620Y-34110D02*
X45620Y-35610D01*
X45620Y-35610D02*
X45624Y-35697D01*
X45636Y-35783D01*
X45655Y-35868D01*
X45681Y-35952D01*
X45714Y-36032D01*
X45754Y-36109D01*
X45801Y-36183D01*
X45854Y-36252D01*
X45913Y-36317D01*
X45978Y-36376D01*
X46047Y-36429D01*
X46121Y-36476D01*
X46198Y-36516D01*
X46278Y-36549D01*
X46362Y-36575D01*
X46447Y-36594D01*
X46533Y-36606D01*
X46620Y-36610D01*
X46620Y-36610D02*
X46707Y-36606D01*
X46793Y-36594D01*
X46878Y-36575D01*
X46962Y-36549D01*
X47042Y-36516D01*
X47120Y-36476D01*
X47193Y-36429D01*
X47262Y-36376D01*
X47327Y-36317D01*
X47386Y-36252D01*
X47439Y-36183D01*
X47486Y-36109D01*
X47526Y-36032D01*
X47559Y-35952D01*
X47585Y-35868D01*
X47604Y-35783D01*
X47616Y-35697D01*
X47620Y-35610D01*
X47620Y-35610D02*
X47620Y-34110D01*
X62578Y-34110D02*
X62578Y-35610D01*
X62578Y-35630D02*
X62582Y-35717D01*
X62594Y-35803D01*
X62613Y-35888D01*
X62639Y-35972D01*
X62672Y-36052D01*
X62712Y-36129D01*
X62759Y-36203D01*
X62812Y-36272D01*
X62871Y-36337D01*
X62936Y-36396D01*
X63005Y-36449D01*
X63079Y-36496D01*
X63156Y-36536D01*
X63236Y-36569D01*
X63320Y-36595D01*
X63405Y-36614D01*
X63491Y-36626D01*
X63578Y-36630D01*
X63598Y-36630D02*
X63685Y-36626D01*
X63771Y-36614D01*
X63856Y-36595D01*
X63940Y-36569D01*
X64020Y-36536D01*
X64098Y-36496D01*
X64171Y-36449D01*
X64240Y-36396D01*
X64305Y-36337D01*
X64364Y-36272D01*
X64417Y-36203D01*
X64464Y-36129D01*
X64504Y-36052D01*
X64537Y-35972D01*
X64563Y-35888D01*
X64582Y-35803D01*
X64594Y-35717D01*
X64598Y-35630D01*
X64588Y-35629D02*
X64588Y-34129D01*
X67610Y-34110D02*
X76610Y-34110D01*
X76610Y-34110D02*
X83630Y-50690D01*
X83630Y-50690D02*
X71110Y-54210D01*
X71110Y-54210D02*
X71110Y-57710D01*
X71110Y-57710D02*
X42110Y-57710D01*
X42110Y-57710D02*
X42110Y-54210D01*
X42110Y-54210D02*
X29600Y-50690D01*
X29600Y-50690D02*
X36610Y-34110D01*
X47789Y-44943D02*
X50789Y-44943D01*
X50789Y-44943D02*
X50789Y-45943D01*
X50789Y-45943D02*
X47789Y-45943D01*
X47789Y-45943D02*
X47789Y-44943D01*
G54D12*
X51713Y-55335D02*
X51671Y-55761D01*
X51547Y-56171D01*
X51346Y-56549D01*
X51075Y-56881D01*
X50745Y-57154D01*
X50368Y-57358D01*
X49959Y-57485D01*
X49533Y-57529D01*
X49107Y-57491D01*
X48696Y-57370D01*
X48317Y-57171D01*
X47983Y-56903D01*
X47707Y-56575D01*
X47501Y-56199D01*
X47371Y-55791D01*
X47324Y-55365D01*
X47360Y-54939D01*
X47478Y-54527D01*
X47673Y-54146D01*
X47940Y-53811D01*
X48266Y-53533D01*
X48640Y-53324D01*
X49047Y-53192D01*
X49473Y-53141D01*
X49899Y-53174D01*
X50311Y-53289D01*
X50694Y-53482D01*
X51031Y-53746D01*
X51311Y-54070D01*
X51523Y-54443D01*
X51658Y-54849D01*
X51712Y-55274D01*
X51713Y-55335D01*
G54D11*
X47850Y-38823D02*
X56650Y-38823D01*
X56650Y-38823D02*
X56660Y-34623D01*
X56660Y-34623D02*
X47850Y-34623D01*
X47850Y-34623D02*
X47850Y-38823D01*
G54D12*
X59331Y-57061D02*
X59331Y-56861D01*
X59331Y-54061D02*
X59331Y-54261D01*
X59331Y-54261D02*
X58931Y-54261D01*
X58931Y-54261D02*
X58931Y-56861D01*
X58931Y-56861D02*
X59731Y-56861D01*
X59731Y-56861D02*
X59731Y-54261D01*
X59731Y-54261D02*
X59331Y-54261D01*
X59131Y-56861D02*
X58931Y-56661D01*
X58386Y-57022D02*
X58386Y-56822D01*
X58386Y-54022D02*
X58386Y-54222D01*
X58386Y-54222D02*
X57986Y-54222D01*
X57986Y-54222D02*
X57986Y-56822D01*
X57986Y-56822D02*
X58786Y-56822D01*
X58786Y-56822D02*
X58786Y-54222D01*
X58786Y-54222D02*
X58386Y-54222D01*
X58186Y-56822D02*
X57986Y-56622D01*
X51636Y-55565D02*
X52636Y-55565D01*
X52636Y-55565D02*
X52636Y-57565D01*
X52636Y-57565D02*
X51636Y-57565D01*
X51636Y-57565D02*
X51636Y-55565D01*
X46219Y-42740D02*
X45219Y-42740D01*
X45219Y-42740D02*
X45219Y-39740D01*
X45219Y-39740D02*
X46219Y-39740D01*
X46219Y-39740D02*
X46219Y-42740D01*
X45219Y-41740D02*
X46219Y-41740D01*
X71222Y-47654D02*
X72222Y-47654D01*
X72222Y-47654D02*
X72222Y-50654D01*
X72222Y-50654D02*
X71222Y-50654D01*
X71222Y-50654D02*
X71222Y-47654D01*
X72222Y-48654D02*
X71222Y-48654D01*
X47252Y-43811D02*
X47252Y-43811D01*
X47252Y-44811D02*
X47252Y-43811D01*
X47252Y-43811D02*
X47252Y-43811D01*
X47252Y-43811D02*
X51252Y-43811D01*
X51252Y-43811D02*
X51252Y-44811D01*
X51252Y-44811D02*
X47252Y-44811D01*
X48252Y-44811D02*
X48252Y-43811D01*
G54D13*
X53551Y-54953D02*
X54051Y-54953D01*
X54051Y-54953D02*
X54051Y-55953D01*
X54051Y-55953D02*
X53551Y-55953D01*
X53551Y-54453D02*
X57551Y-54453D01*
X57551Y-54453D02*
X57551Y-56453D01*
X57551Y-56453D02*
X53551Y-56453D01*
X53551Y-56453D02*
X53551Y-54453D01*
G54D11*
X42217Y-54906D02*
X43217Y-54906D01*
X42217Y-44906D02*
X42217Y-55906D01*
X42217Y-55906D02*
X43217Y-55906D01*
X43217Y-55906D02*
X43217Y-44906D01*
X42217Y-44906D02*
X43217Y-44906D01*
G54D12*
X60157Y-40874D02*
X60157Y-39874D01*
X60157Y-39874D02*
X69157Y-39874D01*
X69157Y-39874D02*
X69157Y-40874D01*
X60157Y-40874D02*
X69157Y-40874D01*
X68157Y-40874D02*
X68157Y-39874D01*
X50678Y-51330D02*
X50678Y-47390D01*
X50678Y-47390D02*
X54618Y-47390D01*
X54618Y-51140D02*
X54618Y-47390D01*
X54428Y-51330D02*
X50678Y-51330D01*
X54618Y-51140D02*
X54428Y-51330D01*
G54D14*
X54398Y-50860D02*
X54393Y-50908D01*
X54379Y-50955D01*
X54356Y-50998D01*
X54325Y-51036D01*
X54287Y-51067D01*
X54244Y-51090D01*
X54198Y-51104D01*
X54149Y-51109D01*
X54102Y-51105D01*
X54055Y-51091D01*
X54012Y-51069D01*
X53974Y-51038D01*
X53942Y-51001D01*
X53919Y-50958D01*
X53904Y-50911D01*
X53899Y-50863D01*
X53903Y-50815D01*
X53916Y-50768D01*
X53938Y-50725D01*
X53969Y-50687D01*
X54006Y-50655D01*
X54048Y-50631D01*
X54095Y-50616D01*
X54143Y-50611D01*
X54191Y-50614D01*
X54238Y-50627D01*
X54281Y-50649D01*
X54320Y-50679D01*
X54352Y-50716D01*
X54376Y-50759D01*
X54391Y-50805D01*
X54397Y-50854D01*
X54398Y-50860D01*
G54D11*
X45697Y-45406D02*
X45697Y-45906D01*
X45697Y-45906D02*
X44697Y-45906D01*
X44697Y-45906D02*
X44697Y-45406D01*
X46197Y-45406D02*
X46197Y-56406D01*
X46197Y-56406D02*
X44197Y-56406D01*
X44197Y-56406D02*
X44197Y-45406D01*
X44197Y-45406D02*
X46197Y-45406D01*
X61100Y-54982D02*
X61100Y-54982D01*
X61100Y-54982D02*
X61600Y-54982D01*
X61600Y-54982D02*
X61600Y-55982D01*
X61600Y-55982D02*
X61100Y-55982D01*
X61100Y-54482D02*
X70100Y-54482D01*
X70100Y-54482D02*
X70100Y-56482D01*
X70100Y-56482D02*
X61100Y-56482D01*
X61100Y-56482D02*
X61100Y-54482D01*
G54D12*
X35447Y-51524D02*
X35447Y-50524D01*
X35447Y-50524D02*
X37447Y-50524D01*
X37447Y-50524D02*
X37447Y-51524D01*
X37447Y-51524D02*
X35447Y-51524D01*
X75053Y-51829D02*
X75053Y-50829D01*
X75053Y-50829D02*
X77053Y-50829D01*
X77053Y-50829D02*
X77053Y-51829D01*
X77053Y-51829D02*
X75053Y-51829D01*
X58280Y-34442D02*
X58280Y-34442D01*
X58280Y-35442D02*
X58280Y-34442D01*
X58280Y-34442D02*
X58280Y-34442D01*
X58280Y-34442D02*
X62280Y-34442D01*
X62280Y-34442D02*
X62280Y-35442D01*
X62280Y-35442D02*
X58280Y-35442D01*
X59280Y-35442D02*
X59280Y-34442D01*
X41486Y-48094D02*
X41486Y-47894D01*
X41486Y-45094D02*
X41486Y-45294D01*
X41486Y-45294D02*
X41086Y-45294D01*
X41086Y-45294D02*
X41086Y-47894D01*
X41086Y-47894D02*
X41886Y-47894D01*
X41886Y-47894D02*
X41886Y-45294D01*
X41886Y-45294D02*
X41486Y-45294D01*
X41286Y-47894D02*
X41086Y-47694D01*
X42445Y-35480D02*
X42445Y-34480D01*
X42445Y-34480D02*
X44445Y-34480D01*
X44445Y-34480D02*
X44445Y-35480D01*
X44445Y-35480D02*
X42445Y-35480D01*
X59157Y-39724D02*
X59157Y-38724D01*
X59157Y-38724D02*
X69157Y-38724D01*
X69157Y-38724D02*
X69157Y-39724D01*
X69157Y-39724D02*
X59157Y-39724D01*
X60157Y-39724D02*
X60157Y-38724D01*
G54D15*
X46905Y-45149D02*
X47190Y-45830D01*
X47190Y-45149D02*
X46905Y-45830D01*
X47578Y-45830D02*
X47334Y-45830D01*
X47456Y-45830D02*
X47456Y-45149D01*
X47415Y-45246D01*
X47374Y-45311D01*
X47334Y-45344D01*
G54D13*
X64209Y-50824D02*
X64209Y-51252D01*
X64181Y-51338D01*
X64124Y-51395D01*
X64038Y-51424D01*
X63981Y-51424D01*
X64466Y-50881D02*
X64495Y-50852D01*
X64552Y-50824D01*
X64695Y-50824D01*
X64752Y-50852D01*
X64781Y-50881D01*
X64809Y-50938D01*
X64809Y-50995D01*
X64781Y-51081D01*
X64438Y-51424D01*
X64809Y-51424D01*
X61641Y-49673D02*
X61984Y-49673D01*
X61813Y-50273D02*
X61813Y-49673D01*
X62184Y-50273D02*
X62184Y-49673D01*
X62184Y-49959D02*
X62527Y-49959D01*
X62527Y-50273D02*
X62527Y-49673D01*
X62813Y-49673D02*
X62813Y-50159D01*
X62841Y-50216D01*
X62870Y-50244D01*
X62927Y-50273D01*
X63041Y-50273D01*
X63099Y-50244D01*
X63127Y-50216D01*
X63156Y-50159D01*
X63156Y-49673D01*
X63442Y-50273D02*
X63442Y-49673D01*
X63642Y-50101D01*
X63842Y-49673D01*
X63842Y-50273D01*
X64328Y-49959D02*
X64414Y-49987D01*
X64442Y-50016D01*
X64471Y-50073D01*
X64471Y-50159D01*
X64442Y-50216D01*
X64414Y-50244D01*
X64356Y-50273D01*
X64128Y-50273D01*
X64128Y-49673D01*
X64328Y-49673D01*
X64385Y-49701D01*
X64414Y-49730D01*
X64442Y-49787D01*
X64442Y-49844D01*
X64414Y-49901D01*
X64385Y-49930D01*
X64328Y-49959D01*
X64128Y-49959D01*
X64699Y-50244D02*
X64785Y-50273D01*
X64928Y-50273D01*
X64985Y-50244D01*
X65014Y-50216D01*
X65042Y-50159D01*
X65042Y-50101D01*
X65014Y-50044D01*
X64985Y-50016D01*
X64928Y-49987D01*
X64814Y-49959D01*
X64756Y-49930D01*
X64728Y-49901D01*
X64699Y-49844D01*
X64699Y-49787D01*
X64728Y-49730D01*
X64756Y-49701D01*
X64814Y-49673D01*
X64956Y-49673D01*
X65042Y-49701D01*
X65213Y-49673D02*
X65556Y-49673D01*
X65385Y-50273D02*
X65385Y-49673D01*
X65756Y-50273D02*
X65756Y-49673D01*
X66385Y-50216D02*
X66356Y-50244D01*
X66270Y-50273D01*
X66213Y-50273D01*
X66128Y-50244D01*
X66070Y-50187D01*
X66042Y-50130D01*
X66013Y-50016D01*
X66013Y-49930D01*
X66042Y-49816D01*
X66070Y-49759D01*
X66128Y-49701D01*
X66213Y-49673D01*
X66270Y-49673D01*
X66356Y-49701D01*
X66385Y-49730D01*
X66642Y-50273D02*
X66642Y-49673D01*
X66985Y-50273D02*
X66728Y-49930D01*
X66985Y-49673D02*
X66642Y-50016D01*
X39013Y-40706D02*
X39013Y-41134D01*
X38985Y-41220D01*
X38928Y-41277D01*
X38842Y-41306D01*
X38785Y-41306D01*
X39613Y-41306D02*
X39270Y-41306D01*
X39442Y-41306D02*
X39442Y-40706D01*
X39385Y-40792D01*
X39327Y-40849D01*
X39270Y-40877D01*
X36542Y-39525D02*
X36885Y-39525D01*
X36714Y-40125D02*
X36714Y-39525D01*
X37085Y-40125D02*
X37085Y-39525D01*
X37085Y-39811D02*
X37428Y-39811D01*
X37428Y-40125D02*
X37428Y-39525D01*
X37714Y-39525D02*
X37714Y-40011D01*
X37742Y-40068D01*
X37771Y-40096D01*
X37828Y-40125D01*
X37942Y-40125D01*
X38000Y-40096D01*
X38028Y-40068D01*
X38057Y-40011D01*
X38057Y-39525D01*
X38343Y-40125D02*
X38343Y-39525D01*
X38543Y-39953D01*
X38743Y-39525D01*
X38743Y-40125D01*
X39229Y-39811D02*
X39315Y-39839D01*
X39343Y-39868D01*
X39372Y-39925D01*
X39372Y-40011D01*
X39343Y-40068D01*
X39315Y-40096D01*
X39257Y-40125D01*
X39029Y-40125D01*
X39029Y-39525D01*
X39229Y-39525D01*
X39286Y-39553D01*
X39315Y-39582D01*
X39343Y-39639D01*
X39343Y-39696D01*
X39315Y-39753D01*
X39286Y-39782D01*
X39229Y-39811D01*
X39029Y-39811D01*
X39600Y-40096D02*
X39686Y-40125D01*
X39829Y-40125D01*
X39886Y-40096D01*
X39915Y-40068D01*
X39943Y-40011D01*
X39943Y-39953D01*
X39915Y-39896D01*
X39886Y-39868D01*
X39829Y-39839D01*
X39715Y-39811D01*
X39657Y-39782D01*
X39629Y-39753D01*
X39600Y-39696D01*
X39600Y-39639D01*
X39629Y-39582D01*
X39657Y-39553D01*
X39715Y-39525D01*
X39857Y-39525D01*
X39943Y-39553D01*
X40114Y-39525D02*
X40457Y-39525D01*
X40286Y-40125D02*
X40286Y-39525D01*
X40657Y-40125D02*
X40657Y-39525D01*
X41286Y-40068D02*
X41257Y-40096D01*
X41171Y-40125D01*
X41114Y-40125D01*
X41029Y-40096D01*
X40971Y-40039D01*
X40943Y-39982D01*
X40914Y-39868D01*
X40914Y-39782D01*
X40943Y-39668D01*
X40971Y-39611D01*
X41029Y-39553D01*
X41114Y-39525D01*
X41171Y-39525D01*
X41257Y-39553D01*
X41286Y-39582D01*
X41543Y-40125D02*
X41543Y-39525D01*
X41886Y-40125D02*
X41629Y-39782D01*
X41886Y-39525D02*
X41543Y-39868D01*
G54D16*
X50673Y-55418D02*
X50697Y-55442D01*
X50720Y-55513D01*
X50720Y-55561D01*
X50697Y-55633D01*
X50649Y-55680D01*
X50601Y-55704D01*
X50506Y-55728D01*
X50435Y-55728D01*
X50339Y-55704D01*
X50292Y-55680D01*
X50244Y-55633D01*
X50220Y-55561D01*
X50220Y-55513D01*
X50244Y-55442D01*
X50268Y-55418D01*
X50720Y-54942D02*
X50720Y-55228D01*
X50720Y-55085D02*
X50220Y-55085D01*
X50292Y-55133D01*
X50339Y-55180D01*
X50363Y-55228D01*
X48720Y-56299D02*
X48720Y-56585D01*
X48720Y-56442D02*
X48220Y-56442D01*
X48292Y-56490D01*
X48339Y-56537D01*
X48363Y-56585D01*
X48220Y-55847D02*
X48220Y-56085D01*
X48458Y-56109D01*
X48435Y-56085D01*
X48411Y-56037D01*
X48411Y-55918D01*
X48435Y-55871D01*
X48458Y-55847D01*
X48506Y-55823D01*
X48625Y-55823D01*
X48673Y-55847D01*
X48697Y-55871D01*
X48720Y-55918D01*
X48720Y-56037D01*
X48697Y-56085D01*
X48673Y-56109D01*
X48220Y-55514D02*
X48220Y-55466D01*
X48244Y-55418D01*
X48268Y-55395D01*
X48316Y-55371D01*
X48411Y-55347D01*
X48530Y-55347D01*
X48625Y-55371D01*
X48673Y-55395D01*
X48697Y-55418D01*
X48720Y-55466D01*
X48720Y-55514D01*
X48697Y-55561D01*
X48673Y-55585D01*
X48625Y-55609D01*
X48530Y-55633D01*
X48411Y-55633D01*
X48316Y-55609D01*
X48268Y-55585D01*
X48244Y-55561D01*
X48220Y-55514D01*
X48768Y-55252D02*
X48768Y-54871D01*
X48387Y-54538D02*
X48720Y-54538D01*
X48387Y-54752D02*
X48649Y-54752D01*
X48697Y-54728D01*
X48720Y-54681D01*
X48720Y-54609D01*
X48697Y-54561D01*
X48673Y-54538D01*
X48458Y-54133D02*
X48458Y-54300D01*
X48720Y-54300D02*
X48220Y-54300D01*
X48220Y-54062D01*
G54D13*
X54013Y-34866D02*
X54013Y-35352D01*
X54041Y-35409D01*
X54070Y-35437D01*
X54127Y-35466D01*
X54241Y-35466D01*
X54299Y-35437D01*
X54327Y-35409D01*
X54356Y-35352D01*
X54356Y-34866D01*
X54613Y-34923D02*
X54642Y-34894D01*
X54699Y-34866D01*
X54842Y-34866D01*
X54899Y-34894D01*
X54928Y-34923D01*
X54956Y-34980D01*
X54956Y-35037D01*
X54928Y-35123D01*
X54585Y-35466D01*
X54956Y-35466D01*
X48330Y-38202D02*
X48416Y-38230D01*
X48444Y-38259D01*
X48473Y-38316D01*
X48473Y-38402D01*
X48444Y-38459D01*
X48416Y-38487D01*
X48358Y-38516D01*
X48130Y-38516D01*
X48130Y-37916D01*
X48330Y-37916D01*
X48387Y-37944D01*
X48416Y-37973D01*
X48444Y-38030D01*
X48444Y-38087D01*
X48416Y-38144D01*
X48387Y-38173D01*
X48330Y-38202D01*
X48130Y-38202D01*
X48844Y-37916D02*
X48958Y-37916D01*
X49016Y-37944D01*
X49073Y-38002D01*
X49101Y-38116D01*
X49101Y-38316D01*
X49073Y-38430D01*
X49016Y-38487D01*
X48958Y-38516D01*
X48844Y-38516D01*
X48787Y-38487D01*
X48730Y-38430D01*
X48701Y-38316D01*
X48701Y-38116D01*
X48730Y-38002D01*
X48787Y-37944D01*
X48844Y-37916D01*
X49473Y-37916D02*
X49587Y-37916D01*
X49645Y-37944D01*
X49702Y-38002D01*
X49730Y-38116D01*
X49730Y-38316D01*
X49702Y-38430D01*
X49645Y-38487D01*
X49587Y-38516D01*
X49473Y-38516D01*
X49416Y-38487D01*
X49359Y-38430D01*
X49330Y-38316D01*
X49330Y-38116D01*
X49359Y-38002D01*
X49416Y-37944D01*
X49473Y-37916D01*
X49959Y-38487D02*
X50045Y-38516D01*
X50188Y-38516D01*
X50245Y-38487D01*
X50274Y-38459D01*
X50302Y-38402D01*
X50302Y-38344D01*
X50274Y-38287D01*
X50245Y-38259D01*
X50188Y-38230D01*
X50074Y-38202D01*
X50016Y-38173D01*
X49988Y-38144D01*
X49959Y-38087D01*
X49959Y-38030D01*
X49988Y-37973D01*
X50016Y-37944D01*
X50074Y-37916D01*
X50216Y-37916D01*
X50302Y-37944D01*
X50473Y-37916D02*
X50816Y-37916D01*
X50645Y-38516D02*
X50645Y-37916D01*
X50873Y-38573D02*
X51330Y-38573D01*
X51816Y-38459D02*
X51787Y-38487D01*
X51701Y-38516D01*
X51644Y-38516D01*
X51559Y-38487D01*
X51501Y-38430D01*
X51473Y-38373D01*
X51444Y-38259D01*
X51444Y-38173D01*
X51473Y-38059D01*
X51501Y-38002D01*
X51559Y-37944D01*
X51644Y-37916D01*
X51701Y-37916D01*
X51787Y-37944D01*
X51816Y-37973D01*
X52187Y-37916D02*
X52301Y-37916D01*
X52359Y-37944D01*
X52416Y-38002D01*
X52444Y-38116D01*
X52444Y-38316D01*
X52416Y-38430D01*
X52359Y-38487D01*
X52301Y-38516D01*
X52187Y-38516D01*
X52130Y-38487D01*
X52073Y-38430D01*
X52044Y-38316D01*
X52044Y-38116D01*
X52073Y-38002D01*
X52130Y-37944D01*
X52187Y-37916D01*
X52702Y-38516D02*
X52702Y-37916D01*
X53045Y-38516D01*
X53045Y-37916D01*
X53245Y-37916D02*
X53445Y-38516D01*
X53645Y-37916D01*
X53845Y-38202D02*
X54045Y-38202D01*
X54131Y-38516D02*
X53845Y-38516D01*
X53845Y-37916D01*
X54131Y-37916D01*
X54731Y-38516D02*
X54531Y-38230D01*
X54388Y-38516D02*
X54388Y-37916D01*
X54616Y-37916D01*
X54674Y-37944D01*
X54702Y-37973D01*
X54731Y-38030D01*
X54731Y-38116D01*
X54702Y-38173D01*
X54674Y-38202D01*
X54616Y-38230D01*
X54388Y-38230D01*
X54902Y-37916D02*
X55245Y-37916D01*
X55074Y-38516D02*
X55074Y-37916D01*
X55445Y-38202D02*
X55645Y-38202D01*
X55731Y-38516D02*
X55445Y-38516D01*
X55445Y-37916D01*
X55731Y-37916D01*
X56331Y-38516D02*
X56131Y-38230D01*
X55988Y-38516D02*
X55988Y-37916D01*
X56216Y-37916D01*
X56274Y-37944D01*
X56302Y-37973D01*
X56331Y-38030D01*
X56331Y-38116D01*
X56302Y-38173D01*
X56274Y-38202D01*
X56216Y-38230D01*
X55988Y-38230D01*
X50893Y-37866D02*
X50893Y-38352D01*
X50921Y-38409D01*
X50950Y-38437D01*
X51007Y-38466D01*
X51121Y-38466D01*
X51179Y-38437D01*
X51207Y-38409D01*
X51236Y-38352D01*
X51236Y-37866D01*
X51836Y-38466D02*
X51493Y-38466D01*
X51665Y-38466D02*
X51665Y-37866D01*
X51608Y-37952D01*
X51550Y-38009D01*
X51493Y-38037D01*
X48361Y-35102D02*
X48447Y-35130D01*
X48475Y-35159D01*
X48504Y-35216D01*
X48504Y-35302D01*
X48475Y-35359D01*
X48447Y-35387D01*
X48389Y-35416D01*
X48161Y-35416D01*
X48161Y-34816D01*
X48361Y-34816D01*
X48418Y-34844D01*
X48447Y-34873D01*
X48475Y-34930D01*
X48475Y-34987D01*
X48447Y-35044D01*
X48418Y-35073D01*
X48361Y-35102D01*
X48161Y-35102D01*
X48875Y-34816D02*
X48989Y-34816D01*
X49047Y-34844D01*
X49104Y-34902D01*
X49132Y-35016D01*
X49132Y-35216D01*
X49104Y-35330D01*
X49047Y-35387D01*
X48989Y-35416D01*
X48875Y-35416D01*
X48818Y-35387D01*
X48761Y-35330D01*
X48732Y-35216D01*
X48732Y-35016D01*
X48761Y-34902D01*
X48818Y-34844D01*
X48875Y-34816D01*
X49504Y-34816D02*
X49618Y-34816D01*
X49676Y-34844D01*
X49733Y-34902D01*
X49761Y-35016D01*
X49761Y-35216D01*
X49733Y-35330D01*
X49676Y-35387D01*
X49618Y-35416D01*
X49504Y-35416D01*
X49447Y-35387D01*
X49390Y-35330D01*
X49361Y-35216D01*
X49361Y-35016D01*
X49390Y-34902D01*
X49447Y-34844D01*
X49504Y-34816D01*
X49990Y-35387D02*
X50076Y-35416D01*
X50219Y-35416D01*
X50276Y-35387D01*
X50305Y-35359D01*
X50333Y-35302D01*
X50333Y-35244D01*
X50305Y-35187D01*
X50276Y-35159D01*
X50219Y-35130D01*
X50105Y-35102D01*
X50047Y-35073D01*
X50019Y-35044D01*
X49990Y-34987D01*
X49990Y-34930D01*
X50019Y-34873D01*
X50047Y-34844D01*
X50105Y-34816D01*
X50247Y-34816D01*
X50333Y-34844D01*
X50504Y-34816D02*
X50847Y-34816D01*
X50676Y-35416D02*
X50676Y-34816D01*
X50904Y-35473D02*
X51361Y-35473D01*
X51847Y-35359D02*
X51818Y-35387D01*
X51732Y-35416D01*
X51675Y-35416D01*
X51590Y-35387D01*
X51532Y-35330D01*
X51504Y-35273D01*
X51475Y-35159D01*
X51475Y-35073D01*
X51504Y-34959D01*
X51532Y-34902D01*
X51590Y-34844D01*
X51675Y-34816D01*
X51732Y-34816D01*
X51818Y-34844D01*
X51847Y-34873D01*
X52218Y-34816D02*
X52332Y-34816D01*
X52390Y-34844D01*
X52447Y-34902D01*
X52475Y-35016D01*
X52475Y-35216D01*
X52447Y-35330D01*
X52390Y-35387D01*
X52332Y-35416D01*
X52218Y-35416D01*
X52161Y-35387D01*
X52104Y-35330D01*
X52075Y-35216D01*
X52075Y-35016D01*
X52104Y-34902D01*
X52161Y-34844D01*
X52218Y-34816D01*
X52733Y-35416D02*
X52733Y-34816D01*
X53076Y-35416D01*
X53076Y-34816D01*
X53276Y-34816D02*
X53476Y-35416D01*
X53676Y-34816D01*
X53876Y-35102D02*
X54076Y-35102D01*
X54162Y-35416D02*
X53876Y-35416D01*
X53876Y-34816D01*
X54162Y-34816D01*
X54762Y-35416D02*
X54562Y-35130D01*
X54419Y-35416D02*
X54419Y-34816D01*
X54647Y-34816D01*
X54705Y-34844D01*
X54733Y-34873D01*
X54762Y-34930D01*
X54762Y-35016D01*
X54733Y-35073D01*
X54705Y-35102D01*
X54647Y-35130D01*
X54419Y-35130D01*
X54933Y-34816D02*
X55276Y-34816D01*
X55105Y-35416D02*
X55105Y-34816D01*
X55476Y-35102D02*
X55676Y-35102D01*
X55762Y-35416D02*
X55476Y-35416D01*
X55476Y-34816D01*
X55762Y-34816D01*
X56362Y-35416D02*
X56162Y-35130D01*
X56019Y-35416D02*
X56019Y-34816D01*
X56247Y-34816D01*
X56305Y-34844D01*
X56333Y-34873D01*
X56362Y-34930D01*
X56362Y-35016D01*
X56333Y-35073D01*
X56305Y-35102D01*
X56247Y-35130D01*
X56019Y-35130D01*
G54D14*
X59554Y-55644D02*
X59292Y-55811D01*
X59554Y-55930D02*
X59004Y-55930D01*
X59004Y-55739D01*
X59030Y-55692D01*
X59056Y-55668D01*
X59108Y-55644D01*
X59187Y-55644D01*
X59239Y-55668D01*
X59266Y-55692D01*
X59292Y-55739D01*
X59292Y-55930D01*
X59056Y-55454D02*
X59030Y-55430D01*
X59004Y-55382D01*
X59004Y-55263D01*
X59030Y-55216D01*
X59056Y-55192D01*
X59108Y-55168D01*
X59161Y-55168D01*
X59239Y-55192D01*
X59554Y-55478D01*
X59554Y-55168D01*
X58609Y-55605D02*
X58347Y-55772D01*
X58609Y-55891D02*
X58059Y-55891D01*
X58059Y-55700D01*
X58085Y-55653D01*
X58111Y-55629D01*
X58163Y-55605D01*
X58242Y-55605D01*
X58294Y-55629D01*
X58321Y-55653D01*
X58347Y-55700D01*
X58347Y-55891D01*
X58609Y-55129D02*
X58609Y-55415D01*
X58609Y-55272D02*
X58059Y-55272D01*
X58137Y-55320D01*
X58190Y-55367D01*
X58216Y-55415D01*
G54D15*
X52470Y-57412D02*
X51789Y-57412D01*
X51789Y-57249D01*
X51822Y-57208D01*
X51854Y-57188D01*
X51919Y-57168D01*
X52016Y-57168D01*
X52081Y-57188D01*
X52113Y-57208D01*
X52146Y-57249D01*
X52146Y-57412D01*
X52470Y-56760D02*
X52470Y-57004D01*
X52470Y-56882D02*
X51789Y-56882D01*
X51886Y-56923D01*
X51951Y-56964D01*
X51984Y-57004D01*
X46092Y-42606D02*
X45387Y-42606D01*
X46092Y-42364D02*
X45689Y-42545D01*
X45387Y-42364D02*
X45790Y-42606D01*
X46092Y-41960D02*
X46092Y-42202D01*
X46092Y-42081D02*
X45387Y-42081D01*
X45488Y-42121D01*
X45555Y-42162D01*
X45588Y-42202D01*
X73065Y-50530D02*
X72360Y-50530D01*
X73065Y-50288D02*
X72662Y-50469D01*
X72360Y-50288D02*
X72763Y-50530D01*
X72427Y-50126D02*
X72393Y-50106D01*
X72360Y-50066D01*
X72360Y-49965D01*
X72393Y-49924D01*
X72427Y-49904D01*
X72494Y-49884D01*
X72561Y-49884D01*
X72662Y-49904D01*
X73065Y-50146D01*
X73065Y-49884D01*
X46385Y-44662D02*
X46385Y-43979D01*
X46548Y-43979D01*
X46589Y-44011D01*
X46609Y-44044D01*
X46629Y-44109D01*
X46629Y-44207D01*
X46609Y-44272D01*
X46589Y-44304D01*
X46548Y-44337D01*
X46385Y-44337D01*
X46772Y-43979D02*
X47037Y-43979D01*
X46894Y-44239D01*
X46956Y-44239D01*
X46996Y-44272D01*
X47017Y-44304D01*
X47037Y-44369D01*
X47037Y-44532D01*
X47017Y-44597D01*
X46996Y-44629D01*
X46956Y-44662D01*
X46833Y-44662D01*
X46793Y-44629D01*
X46772Y-44597D01*
G54D17*
X56966Y-55737D02*
X57371Y-55737D01*
X57419Y-55715D01*
X57443Y-55694D01*
X57466Y-55651D01*
X57466Y-55565D01*
X57443Y-55523D01*
X57419Y-55501D01*
X57371Y-55480D01*
X56966Y-55480D01*
X57181Y-55202D02*
X57157Y-55244D01*
X57133Y-55266D01*
X57085Y-55287D01*
X57062Y-55287D01*
X57014Y-55266D01*
X56990Y-55244D01*
X56966Y-55202D01*
X56966Y-55116D01*
X56990Y-55073D01*
X57014Y-55052D01*
X57062Y-55030D01*
X57085Y-55030D01*
X57133Y-55052D01*
X57157Y-55073D01*
X57181Y-55116D01*
X57181Y-55202D01*
X57204Y-55244D01*
X57228Y-55266D01*
X57276Y-55287D01*
X57371Y-55287D01*
X57419Y-55266D01*
X57443Y-55244D01*
X57466Y-55202D01*
X57466Y-55116D01*
X57443Y-55073D01*
X57419Y-55052D01*
X57371Y-55030D01*
X57276Y-55030D01*
X57228Y-55052D01*
X57204Y-55073D01*
X57181Y-55116D01*
G54D18*
X54313Y-55203D02*
X54332Y-55179D01*
X54370Y-55155D01*
X54466Y-55155D01*
X54504Y-55179D01*
X54523Y-55203D01*
X54542Y-55251D01*
X54542Y-55298D01*
X54523Y-55370D01*
X54294Y-55655D01*
X54542Y-55655D01*
X54885Y-55322D02*
X54885Y-55655D01*
X54789Y-55132D02*
X54694Y-55489D01*
X54942Y-55489D01*
X55285Y-55655D02*
X55094Y-55655D01*
X55094Y-55155D01*
X55647Y-55608D02*
X55628Y-55632D01*
X55571Y-55655D01*
X55533Y-55655D01*
X55475Y-55632D01*
X55437Y-55584D01*
X55418Y-55536D01*
X55399Y-55441D01*
X55399Y-55370D01*
X55418Y-55274D01*
X55437Y-55227D01*
X55475Y-55179D01*
X55533Y-55155D01*
X55571Y-55155D01*
X55628Y-55179D01*
X55647Y-55203D01*
X55799Y-55203D02*
X55818Y-55179D01*
X55856Y-55155D01*
X55952Y-55155D01*
X55990Y-55179D01*
X56009Y-55203D01*
X56028Y-55251D01*
X56028Y-55298D01*
X56009Y-55370D01*
X55780Y-55655D01*
X56028Y-55655D01*
X56390Y-55155D02*
X56199Y-55155D01*
X56180Y-55393D01*
X56199Y-55370D01*
X56237Y-55346D01*
X56333Y-55346D01*
X56371Y-55370D01*
X56390Y-55393D01*
X56409Y-55441D01*
X56409Y-55560D01*
X56390Y-55608D01*
X56371Y-55632D01*
X56333Y-55655D01*
X56237Y-55655D01*
X56199Y-55632D01*
X56180Y-55608D01*
X56752Y-55155D02*
X56675Y-55155D01*
X56637Y-55179D01*
X56618Y-55203D01*
X56580Y-55274D01*
X56561Y-55370D01*
X56561Y-55560D01*
X56580Y-55608D01*
X56599Y-55632D01*
X56637Y-55655D01*
X56714Y-55655D01*
X56752Y-55632D01*
X56771Y-55608D01*
X56790Y-55560D01*
X56790Y-55441D01*
X56771Y-55393D01*
X56752Y-55370D01*
X56714Y-55346D01*
X56637Y-55346D01*
X56599Y-55370D01*
X56580Y-55393D01*
X56561Y-55441D01*
G54D15*
X42351Y-55710D02*
X42902Y-55710D01*
X42967Y-55690D01*
X43000Y-55669D01*
X43032Y-55629D01*
X43032Y-55547D01*
X43000Y-55506D01*
X42967Y-55486D01*
X42902Y-55466D01*
X42351Y-55466D01*
X43032Y-55242D02*
X43032Y-55160D01*
X43000Y-55119D01*
X42967Y-55099D01*
X42870Y-55058D01*
X42740Y-55038D01*
X42481Y-55038D01*
X42416Y-55058D01*
X42384Y-55079D01*
X42351Y-55119D01*
X42351Y-55201D01*
X42384Y-55242D01*
X42416Y-55262D01*
X42481Y-55282D01*
X42643Y-55282D01*
X42708Y-55262D01*
X42740Y-55242D01*
X42773Y-55201D01*
X42773Y-55119D01*
X42740Y-55079D01*
X42708Y-55058D01*
X42643Y-55038D01*
G54D18*
X43000Y-45740D02*
X42714Y-45874D01*
X43000Y-45969D02*
X42400Y-45969D01*
X42400Y-45816D01*
X42428Y-45778D01*
X42457Y-45759D01*
X42514Y-45740D01*
X42600Y-45740D01*
X42657Y-45759D01*
X42686Y-45778D01*
X42714Y-45816D01*
X42714Y-45969D01*
X43000Y-45359D02*
X43000Y-45588D01*
X43000Y-45474D02*
X42400Y-45474D01*
X42486Y-45512D01*
X42543Y-45550D01*
X42571Y-45588D01*
X42400Y-45112D02*
X42400Y-45073D01*
X42428Y-45035D01*
X42457Y-45016D01*
X42514Y-44997D01*
X42628Y-44978D01*
X42771Y-44978D01*
X42886Y-44997D01*
X42943Y-45016D01*
X42971Y-45035D01*
X43000Y-45073D01*
X43000Y-45112D01*
X42971Y-45150D01*
X42943Y-45169D01*
X42886Y-45188D01*
X42771Y-45207D01*
X42628Y-45207D01*
X42514Y-45188D01*
X42457Y-45169D01*
X42428Y-45150D01*
X42400Y-45112D01*
G54D15*
X68042Y-40066D02*
X68042Y-40617D01*
X68062Y-40682D01*
X68083Y-40715D01*
X68123Y-40747D01*
X68205Y-40747D01*
X68246Y-40715D01*
X68266Y-40682D01*
X68286Y-40617D01*
X68286Y-40066D01*
X68449Y-40066D02*
X68714Y-40066D01*
X68571Y-40326D01*
X68633Y-40326D01*
X68673Y-40358D01*
X68694Y-40390D01*
X68714Y-40455D01*
X68714Y-40617D01*
X68694Y-40682D01*
X68673Y-40715D01*
X68633Y-40747D01*
X68510Y-40747D01*
X68470Y-40715D01*
X68449Y-40682D01*
G54D18*
X60605Y-40686D02*
X60471Y-40400D01*
X60376Y-40686D02*
X60376Y-40086D01*
X60529Y-40086D01*
X60567Y-40114D01*
X60586Y-40143D01*
X60605Y-40200D01*
X60605Y-40286D01*
X60586Y-40343D01*
X60567Y-40372D01*
X60529Y-40400D01*
X60376Y-40400D01*
X60833Y-40343D02*
X60795Y-40314D01*
X60776Y-40286D01*
X60757Y-40229D01*
X60757Y-40200D01*
X60776Y-40143D01*
X60795Y-40114D01*
X60833Y-40086D01*
X60910Y-40086D01*
X60948Y-40114D01*
X60967Y-40143D01*
X60986Y-40200D01*
X60986Y-40229D01*
X60967Y-40286D01*
X60948Y-40314D01*
X60910Y-40343D01*
X60833Y-40343D01*
X60795Y-40372D01*
X60776Y-40400D01*
X60757Y-40457D01*
X60757Y-40572D01*
X60776Y-40629D01*
X60795Y-40657D01*
X60833Y-40686D01*
X60910Y-40686D01*
X60948Y-40657D01*
X60967Y-40629D01*
X60986Y-40572D01*
X60986Y-40457D01*
X60967Y-40400D01*
X60948Y-40372D01*
X60910Y-40343D01*
X52343Y-49753D02*
X52343Y-50239D01*
X52362Y-50296D01*
X52381Y-50324D01*
X52419Y-50353D01*
X52496Y-50353D01*
X52534Y-50324D01*
X52553Y-50296D01*
X52572Y-50239D01*
X52572Y-49753D01*
X52934Y-49753D02*
X52857Y-49753D01*
X52819Y-49781D01*
X52800Y-49810D01*
X52762Y-49896D01*
X52743Y-50010D01*
X52743Y-50239D01*
X52762Y-50296D01*
X52781Y-50324D01*
X52819Y-50353D01*
X52896Y-50353D01*
X52934Y-50324D01*
X52953Y-50296D01*
X52972Y-50239D01*
X52972Y-50096D01*
X52953Y-50039D01*
X52934Y-50010D01*
X52896Y-49981D01*
X52819Y-49981D01*
X52781Y-50010D01*
X52762Y-50039D01*
X52743Y-50096D01*
X51048Y-48853D02*
X51048Y-48253D01*
X51201Y-48253D01*
X51239Y-48281D01*
X51258Y-48310D01*
X51277Y-48367D01*
X51277Y-48453D01*
X51258Y-48510D01*
X51239Y-48539D01*
X51201Y-48567D01*
X51048Y-48567D01*
X51677Y-48853D02*
X51543Y-48567D01*
X51448Y-48853D02*
X51448Y-48253D01*
X51601Y-48253D01*
X51639Y-48281D01*
X51658Y-48310D01*
X51677Y-48367D01*
X51677Y-48453D01*
X51658Y-48510D01*
X51639Y-48539D01*
X51601Y-48567D01*
X51448Y-48567D01*
X51924Y-48253D02*
X52001Y-48253D01*
X52039Y-48281D01*
X52077Y-48339D01*
X52096Y-48453D01*
X52096Y-48653D01*
X52077Y-48767D01*
X52039Y-48824D01*
X52001Y-48853D01*
X51924Y-48853D01*
X51886Y-48824D01*
X51848Y-48767D01*
X51829Y-48653D01*
X51829Y-48453D01*
X51848Y-48339D01*
X51886Y-48281D01*
X51924Y-48253D01*
X52267Y-48853D02*
X52267Y-48253D01*
X52420Y-48253D01*
X52458Y-48281D01*
X52477Y-48310D01*
X52496Y-48367D01*
X52496Y-48453D01*
X52477Y-48510D01*
X52458Y-48539D01*
X52420Y-48567D01*
X52267Y-48567D01*
X52667Y-48539D02*
X52801Y-48539D01*
X52858Y-48853D02*
X52667Y-48853D01*
X52667Y-48253D01*
X52858Y-48253D01*
X53220Y-48853D02*
X53029Y-48853D01*
X53029Y-48253D01*
X53544Y-48853D02*
X53353Y-48853D01*
X53353Y-48253D01*
X53677Y-48539D02*
X53811Y-48539D01*
X53868Y-48853D02*
X53677Y-48853D01*
X53677Y-48253D01*
X53868Y-48253D01*
X54268Y-48853D02*
X54134Y-48567D01*
X54039Y-48853D02*
X54039Y-48253D01*
X54192Y-48253D01*
X54230Y-48281D01*
X54249Y-48310D01*
X54268Y-48367D01*
X54268Y-48453D01*
X54249Y-48510D01*
X54230Y-48539D01*
X54192Y-48567D01*
X54039Y-48567D01*
G54D17*
X45280Y-47749D02*
X45847Y-47749D01*
X45914Y-47727D01*
X45947Y-47706D01*
X45980Y-47663D01*
X45980Y-47577D01*
X45947Y-47535D01*
X45914Y-47513D01*
X45847Y-47492D01*
X45280Y-47492D01*
X45280Y-47321D02*
X45280Y-47021D01*
X45980Y-47214D01*
X44980Y-54102D02*
X44980Y-54359D01*
X44980Y-54231D02*
X44280Y-54231D01*
X44380Y-54274D01*
X44447Y-54316D01*
X44480Y-54359D01*
X44280Y-53823D02*
X44280Y-53780D01*
X44314Y-53737D01*
X44347Y-53716D01*
X44414Y-53695D01*
X44547Y-53673D01*
X44714Y-53673D01*
X44847Y-53695D01*
X44914Y-53716D01*
X44947Y-53737D01*
X44980Y-53780D01*
X44980Y-53823D01*
X44947Y-53866D01*
X44914Y-53887D01*
X44847Y-53909D01*
X44714Y-53930D01*
X44547Y-53930D01*
X44414Y-53909D01*
X44347Y-53887D01*
X44314Y-53866D01*
X44280Y-53823D01*
X44980Y-53266D02*
X44980Y-53480D01*
X44280Y-53480D01*
X44614Y-53116D02*
X44614Y-52966D01*
X44980Y-52902D02*
X44980Y-53116D01*
X44280Y-53116D01*
X44280Y-52902D01*
X44980Y-52709D02*
X44280Y-52709D01*
X44280Y-52602D01*
X44314Y-52537D01*
X44380Y-52495D01*
X44447Y-52473D01*
X44580Y-52452D01*
X44680Y-52452D01*
X44814Y-52473D01*
X44880Y-52495D01*
X44947Y-52537D01*
X44980Y-52602D01*
X44980Y-52709D01*
X62543Y-54625D02*
X62543Y-55111D01*
X62565Y-55168D01*
X62586Y-55196D01*
X62629Y-55225D01*
X62715Y-55225D01*
X62757Y-55196D01*
X62779Y-55168D01*
X62800Y-55111D01*
X62800Y-54625D01*
X63250Y-55225D02*
X62993Y-55225D01*
X63121Y-55225D02*
X63121Y-54625D01*
X63078Y-54711D01*
X63036Y-54768D01*
X62993Y-54796D01*
X63529Y-54625D02*
X63572Y-54625D01*
X63615Y-54653D01*
X63636Y-54682D01*
X63657Y-54739D01*
X63679Y-54853D01*
X63679Y-54996D01*
X63657Y-55111D01*
X63636Y-55168D01*
X63615Y-55196D01*
X63572Y-55225D01*
X63529Y-55225D01*
X63486Y-55196D01*
X63465Y-55168D01*
X63443Y-55111D01*
X63422Y-54996D01*
X63422Y-54853D01*
X63443Y-54739D01*
X63465Y-54682D01*
X63486Y-54653D01*
X63529Y-54625D01*
X64949Y-56196D02*
X65013Y-56225D01*
X65120Y-56225D01*
X65163Y-56196D01*
X65184Y-56168D01*
X65206Y-56111D01*
X65206Y-56053D01*
X65184Y-55996D01*
X65163Y-55968D01*
X65120Y-55939D01*
X65034Y-55911D01*
X64992Y-55882D01*
X64970Y-55853D01*
X64949Y-55796D01*
X64949Y-55739D01*
X64970Y-55682D01*
X64992Y-55653D01*
X65034Y-55625D01*
X65142Y-55625D01*
X65206Y-55653D01*
X65399Y-56225D02*
X65399Y-55625D01*
X65656Y-56225D01*
X65656Y-55625D01*
X65827Y-55625D02*
X66127Y-55625D01*
X65934Y-56225D01*
X66513Y-55625D02*
X66299Y-55625D01*
X66278Y-55911D01*
X66299Y-55882D01*
X66342Y-55853D01*
X66449Y-55853D01*
X66492Y-55882D01*
X66513Y-55911D01*
X66535Y-55968D01*
X66535Y-56111D01*
X66513Y-56168D01*
X66492Y-56196D01*
X66449Y-56225D01*
X66342Y-56225D01*
X66299Y-56196D01*
X66278Y-56168D01*
X66921Y-55825D02*
X66921Y-56225D01*
X66814Y-55596D02*
X66707Y-56025D01*
X66985Y-56025D01*
X67350Y-55825D02*
X67350Y-56225D01*
X67243Y-55596D02*
X67136Y-56025D01*
X67414Y-56025D01*
X67822Y-56225D02*
X67565Y-56225D01*
X67693Y-56225D02*
X67693Y-55625D01*
X67650Y-55711D01*
X67608Y-55768D01*
X67565Y-55796D01*
X68101Y-55625D02*
X68144Y-55625D01*
X68187Y-55653D01*
X68208Y-55682D01*
X68229Y-55739D01*
X68251Y-55853D01*
X68251Y-55996D01*
X68229Y-56111D01*
X68208Y-56168D01*
X68187Y-56196D01*
X68144Y-56225D01*
X68101Y-56225D01*
X68058Y-56196D01*
X68037Y-56168D01*
X68015Y-56111D01*
X67994Y-55996D01*
X67994Y-55853D01*
X68015Y-55739D01*
X68037Y-55682D01*
X68058Y-55653D01*
X68101Y-55625D01*
G54D15*
X35373Y-50409D02*
X35373Y-49728D01*
X35536Y-49728D01*
X35577Y-49761D01*
X35597Y-49793D01*
X35617Y-49858D01*
X35617Y-49955D01*
X35597Y-50020D01*
X35577Y-50052D01*
X35536Y-50085D01*
X35373Y-50085D01*
X36005Y-49728D02*
X35801Y-49728D01*
X35781Y-50052D01*
X35801Y-50020D01*
X35842Y-49988D01*
X35944Y-49988D01*
X35984Y-50020D01*
X36005Y-50052D01*
X36025Y-50117D01*
X36025Y-50279D01*
X36005Y-50344D01*
X35984Y-50377D01*
X35944Y-50409D01*
X35842Y-50409D01*
X35801Y-50377D01*
X35781Y-50344D01*
X75034Y-50637D02*
X75034Y-49956D01*
X75197Y-49956D01*
X75238Y-49989D01*
X75258Y-50021D01*
X75278Y-50086D01*
X75278Y-50183D01*
X75258Y-50248D01*
X75238Y-50280D01*
X75197Y-50313D01*
X75034Y-50313D01*
X75645Y-49956D02*
X75564Y-49956D01*
X75523Y-49989D01*
X75503Y-50021D01*
X75462Y-50118D01*
X75442Y-50248D01*
X75442Y-50507D01*
X75462Y-50572D01*
X75482Y-50605D01*
X75523Y-50637D01*
X75605Y-50637D01*
X75645Y-50605D01*
X75666Y-50572D01*
X75686Y-50507D01*
X75686Y-50345D01*
X75666Y-50280D01*
X75645Y-50248D01*
X75605Y-50216D01*
X75523Y-50216D01*
X75482Y-50248D01*
X75462Y-50280D01*
X75442Y-50345D01*
X58444Y-35281D02*
X58444Y-34598D01*
X58607Y-34598D01*
X58648Y-34630D01*
X58668Y-34663D01*
X58688Y-34728D01*
X58688Y-34826D01*
X58668Y-34891D01*
X58648Y-34923D01*
X58607Y-34956D01*
X58444Y-34956D01*
X59055Y-34826D02*
X59055Y-35281D01*
X58953Y-34565D02*
X58852Y-35053D01*
X59116Y-35053D01*
G54D14*
X41749Y-47543D02*
X41487Y-47710D01*
X41749Y-47829D02*
X41199Y-47829D01*
X41199Y-47638D01*
X41225Y-47591D01*
X41251Y-47567D01*
X41303Y-47543D01*
X41382Y-47543D01*
X41434Y-47567D01*
X41461Y-47591D01*
X41487Y-47638D01*
X41487Y-47829D01*
X41199Y-47377D02*
X41199Y-47067D01*
X41408Y-47234D01*
X41408Y-47162D01*
X41434Y-47115D01*
X41461Y-47091D01*
X41513Y-47067D01*
X41644Y-47067D01*
X41696Y-47091D01*
X41722Y-47115D01*
X41749Y-47162D01*
X41749Y-47305D01*
X41722Y-47353D01*
X41696Y-47377D01*
G54D15*
X42430Y-36308D02*
X42430Y-35627D01*
X42593Y-35627D01*
X42634Y-35660D01*
X42654Y-35692D01*
X42674Y-35757D01*
X42674Y-35854D01*
X42654Y-35919D01*
X42634Y-35951D01*
X42593Y-35984D01*
X42430Y-35984D01*
X42817Y-35627D02*
X43102Y-35627D01*
X42919Y-36308D01*
X61341Y-38499D02*
X61341Y-37818D01*
X61504Y-37818D01*
X61545Y-37851D01*
X61565Y-37883D01*
X61585Y-37948D01*
X61585Y-38045D01*
X61565Y-38110D01*
X61545Y-38142D01*
X61504Y-38175D01*
X61341Y-38175D01*
X61749Y-37883D02*
X61769Y-37851D01*
X61810Y-37818D01*
X61912Y-37818D01*
X61952Y-37851D01*
X61973Y-37883D01*
X61993Y-37948D01*
X61993Y-38013D01*
X61973Y-38110D01*
X61728Y-38499D01*
X61993Y-38499D01*
G54D18*
X65029Y-38153D02*
X65086Y-38181D01*
X65105Y-38210D01*
X65124Y-38267D01*
X65124Y-38353D01*
X65105Y-38410D01*
X65086Y-38438D01*
X65048Y-38467D01*
X64895Y-38467D01*
X64895Y-37867D01*
X65029Y-37867D01*
X65067Y-37895D01*
X65086Y-37924D01*
X65105Y-37981D01*
X65105Y-38038D01*
X65086Y-38095D01*
X65067Y-38124D01*
X65029Y-38153D01*
X64895Y-38153D01*
X65295Y-37867D02*
X65295Y-38353D01*
X65314Y-38410D01*
X65333Y-38438D01*
X65371Y-38467D01*
X65448Y-38467D01*
X65486Y-38438D01*
X65505Y-38410D01*
X65524Y-38353D01*
X65524Y-37867D01*
X65657Y-37867D02*
X65886Y-37867D01*
X65771Y-38467D02*
X65771Y-37867D01*
X65962Y-37867D02*
X66191Y-37867D01*
X66076Y-38467D02*
X66076Y-37867D01*
X66400Y-37867D02*
X66477Y-37867D01*
X66515Y-37895D01*
X66553Y-37953D01*
X66572Y-38067D01*
X66572Y-38267D01*
X66553Y-38381D01*
X66515Y-38438D01*
X66477Y-38467D01*
X66400Y-38467D01*
X66362Y-38438D01*
X66324Y-38381D01*
X66305Y-38267D01*
X66305Y-38067D01*
X66324Y-37953D01*
X66362Y-37895D01*
X66400Y-37867D01*
X66743Y-38467D02*
X66743Y-37867D01*
X66972Y-38467D01*
X66972Y-37867D01*
X67067Y-38524D02*
X67372Y-38524D01*
X67467Y-38467D02*
X67467Y-37867D01*
X67620Y-37867D01*
X67658Y-37895D01*
X67677Y-37924D01*
X67696Y-37981D01*
X67696Y-38067D01*
X67677Y-38124D01*
X67658Y-38153D01*
X67620Y-38181D01*
X67467Y-38181D01*
X67848Y-38295D02*
X68039Y-38295D01*
X67810Y-38467D02*
X67943Y-37867D01*
X68077Y-38467D01*
X68210Y-38467D02*
X68210Y-37867D01*
X68305Y-37867D01*
X68363Y-37895D01*
X68401Y-37953D01*
X68420Y-38010D01*
X68439Y-38124D01*
X68439Y-38210D01*
X68420Y-38324D01*
X68401Y-38381D01*
X68363Y-38438D01*
X68305Y-38467D01*
X68210Y-38467D01*
M02*
