G04 (created by PCBNEW-RS274X (20100406 SVN-R2508)-final) date 9/22/2010 8:11:36 PM*
G01*
G70*
G90*
%MOIN*%
G04 Gerber Fmt 3.4, Leading zero omitted, Abs format*
%FSLAX34Y34*%
G04 APERTURE LIST*
%ADD10C,0.006000*%
%ADD11C,0.015000*%
%ADD12C,0.080000*%
%ADD13R,0.075000X0.075000*%
%ADD14C,0.075000*%
%ADD15C,0.073000*%
%ADD16C,0.059000*%
%ADD17R,0.090000X0.090000*%
%ADD18C,0.090000*%
%ADD19R,0.036000X0.080000*%
%ADD20R,0.080000X0.036000*%
G04 APERTURE END LIST*
G54D10*
G54D11*
X47621Y-34111D02*
X62578Y-34111D01*
X64588Y-34111D02*
X65914Y-34111D01*
X65588Y-34110D02*
X67788Y-34110D01*
X36610Y-34110D02*
X45620Y-34110D01*
X45620Y-34110D02*
X45620Y-35610D01*
X45620Y-35610D02*
X45624Y-35697D01*
X45636Y-35783D01*
X45655Y-35868D01*
X45681Y-35952D01*
X45714Y-36032D01*
X45754Y-36109D01*
X45801Y-36183D01*
X45854Y-36252D01*
X45913Y-36317D01*
X45978Y-36376D01*
X46047Y-36429D01*
X46121Y-36476D01*
X46198Y-36516D01*
X46278Y-36549D01*
X46362Y-36575D01*
X46447Y-36594D01*
X46533Y-36606D01*
X46620Y-36610D01*
X46620Y-36610D02*
X46707Y-36606D01*
X46793Y-36594D01*
X46878Y-36575D01*
X46962Y-36549D01*
X47042Y-36516D01*
X47120Y-36476D01*
X47193Y-36429D01*
X47262Y-36376D01*
X47327Y-36317D01*
X47386Y-36252D01*
X47439Y-36183D01*
X47486Y-36109D01*
X47526Y-36032D01*
X47559Y-35952D01*
X47585Y-35868D01*
X47604Y-35783D01*
X47616Y-35697D01*
X47620Y-35610D01*
X47620Y-35610D02*
X47620Y-34110D01*
X62578Y-34110D02*
X62578Y-35610D01*
X62578Y-35630D02*
X62582Y-35717D01*
X62594Y-35803D01*
X62613Y-35888D01*
X62639Y-35972D01*
X62672Y-36052D01*
X62712Y-36129D01*
X62759Y-36203D01*
X62812Y-36272D01*
X62871Y-36337D01*
X62936Y-36396D01*
X63005Y-36449D01*
X63079Y-36496D01*
X63156Y-36536D01*
X63236Y-36569D01*
X63320Y-36595D01*
X63405Y-36614D01*
X63491Y-36626D01*
X63578Y-36630D01*
X63598Y-36630D02*
X63685Y-36626D01*
X63771Y-36614D01*
X63856Y-36595D01*
X63940Y-36569D01*
X64020Y-36536D01*
X64098Y-36496D01*
X64171Y-36449D01*
X64240Y-36396D01*
X64305Y-36337D01*
X64364Y-36272D01*
X64417Y-36203D01*
X64464Y-36129D01*
X64504Y-36052D01*
X64537Y-35972D01*
X64563Y-35888D01*
X64582Y-35803D01*
X64594Y-35717D01*
X64598Y-35630D01*
X64588Y-35629D02*
X64588Y-34129D01*
X67610Y-34110D02*
X76610Y-34110D01*
X76610Y-34110D02*
X83630Y-50690D01*
X83630Y-50690D02*
X71110Y-54210D01*
X71110Y-54210D02*
X71110Y-57710D01*
X71110Y-57710D02*
X42110Y-57710D01*
X42110Y-57710D02*
X42110Y-54210D01*
X42110Y-54210D02*
X29600Y-50690D01*
X29600Y-50690D02*
X36610Y-34110D01*
G54D12*
X75098Y-34965D03*
X75098Y-35965D03*
X75098Y-36965D03*
X75098Y-37965D03*
X75098Y-38965D03*
X75098Y-39965D03*
X75098Y-40965D03*
X75098Y-41965D03*
X75098Y-42965D03*
X75098Y-43965D03*
X70098Y-43965D03*
X70098Y-42965D03*
X70098Y-41965D03*
X70098Y-40965D03*
X70098Y-39965D03*
X70098Y-38965D03*
X70098Y-37965D03*
X70098Y-36965D03*
X70098Y-35965D03*
X70098Y-34965D03*
G54D13*
X59295Y-41915D03*
G54D14*
X60295Y-41915D03*
X61295Y-41915D03*
X62295Y-41915D03*
X63295Y-41915D03*
X64295Y-41915D03*
X65295Y-41915D03*
X66295Y-41915D03*
X66295Y-44915D03*
X65295Y-44915D03*
X64295Y-44915D03*
X63295Y-44915D03*
X62295Y-44915D03*
X61295Y-44915D03*
X60295Y-44915D03*
X59295Y-44915D03*
G54D13*
X54750Y-43370D03*
G54D14*
X53750Y-43370D03*
X52750Y-43370D03*
X51750Y-43370D03*
X50750Y-43370D03*
X49750Y-43370D03*
X48750Y-43370D03*
X47750Y-43370D03*
X47750Y-40370D03*
X48750Y-40370D03*
X49750Y-40370D03*
X50750Y-40370D03*
X51750Y-40370D03*
X52750Y-40370D03*
X53750Y-40370D03*
X54750Y-40370D03*
G54D13*
X48289Y-45443D03*
G54D14*
X50289Y-45443D03*
G54D12*
X67050Y-52770D03*
X67050Y-46670D03*
X61810Y-46670D03*
X61810Y-52770D03*
G54D15*
X69450Y-51230D03*
X67680Y-51230D03*
X69450Y-48200D03*
X67680Y-48200D03*
G54D16*
X65420Y-45880D03*
X64430Y-45880D03*
X63450Y-45880D03*
X60590Y-50700D03*
X60590Y-49720D03*
X60590Y-48580D03*
G54D12*
X41860Y-43010D03*
X41860Y-36910D03*
X36620Y-36910D03*
X36620Y-43010D03*
G54D15*
X44260Y-41470D03*
X42490Y-41470D03*
X44260Y-38440D03*
X42490Y-38440D03*
G54D16*
X40230Y-36120D03*
X39240Y-36120D03*
X38260Y-36120D03*
X35400Y-40940D03*
X35400Y-39960D03*
X35400Y-38820D03*
G54D17*
X49518Y-56335D03*
G54D18*
X49518Y-54335D03*
G54D12*
X57220Y-37723D03*
X57220Y-35723D03*
X57220Y-36723D03*
X48600Y-37723D03*
X48600Y-35723D03*
X48600Y-36723D03*
G54D14*
X59331Y-57061D03*
X59331Y-54061D03*
X58386Y-57022D03*
X58386Y-54022D03*
G54D13*
X52136Y-56065D03*
G54D14*
X52136Y-57065D03*
G54D13*
X45719Y-42240D03*
G54D14*
X45719Y-41240D03*
X45719Y-40240D03*
G54D13*
X71722Y-48154D03*
G54D14*
X71722Y-49154D03*
X71722Y-50154D03*
G54D13*
X47752Y-44311D03*
G54D14*
X48752Y-44311D03*
X49752Y-44311D03*
X50752Y-44311D03*
G54D13*
X54051Y-56953D03*
G54D14*
X55051Y-56953D03*
X56051Y-56953D03*
X57051Y-56953D03*
X57051Y-53953D03*
X56051Y-53953D03*
X55051Y-53953D03*
X54051Y-53953D03*
G54D13*
X42717Y-55406D03*
G54D14*
X42717Y-54406D03*
X42717Y-53406D03*
X42717Y-52406D03*
X42717Y-51406D03*
X42717Y-50406D03*
X42717Y-49406D03*
X42717Y-48406D03*
X42717Y-47406D03*
X42717Y-46406D03*
G54D12*
X42717Y-45406D03*
G54D13*
X68657Y-40374D03*
G54D14*
X67657Y-40374D03*
X66657Y-40374D03*
X65657Y-40374D03*
X64657Y-40374D03*
X63657Y-40374D03*
X62657Y-40374D03*
X61657Y-40374D03*
X60657Y-40374D03*
G54D19*
X52648Y-51610D03*
X52963Y-51610D03*
X53278Y-51610D03*
X53593Y-51610D03*
X53908Y-51610D03*
X54223Y-51610D03*
X52333Y-51610D03*
X52018Y-51610D03*
X51703Y-51610D03*
X51388Y-51610D03*
X51073Y-51610D03*
X52648Y-47110D03*
X52963Y-47110D03*
X53278Y-47110D03*
X53593Y-47110D03*
X53908Y-47110D03*
X54223Y-47110D03*
X52333Y-47110D03*
X52018Y-47110D03*
X51703Y-47110D03*
X51388Y-47110D03*
X51073Y-47110D03*
G54D20*
X54898Y-49360D03*
X50398Y-49360D03*
X54898Y-49045D03*
X50398Y-49045D03*
X50398Y-48730D03*
X54898Y-48730D03*
X54898Y-48415D03*
X50398Y-48415D03*
X50398Y-48100D03*
X54898Y-48100D03*
X54898Y-47785D03*
X50398Y-47785D03*
X50398Y-49675D03*
X54898Y-49675D03*
X54898Y-49990D03*
X50398Y-49990D03*
X50398Y-50305D03*
X54898Y-50305D03*
X54898Y-50620D03*
X50398Y-50620D03*
X50398Y-50935D03*
X54898Y-50935D03*
G54D13*
X43697Y-46406D03*
G54D14*
X43697Y-47406D03*
X43697Y-48406D03*
X43697Y-49406D03*
X43697Y-50406D03*
X43697Y-51406D03*
X43697Y-52406D03*
X43697Y-53406D03*
X43697Y-54406D03*
X43697Y-55406D03*
X46697Y-55406D03*
X46697Y-54406D03*
X46697Y-53406D03*
X46697Y-52406D03*
X46697Y-51406D03*
X46697Y-50406D03*
X46697Y-49406D03*
X46697Y-48406D03*
X46697Y-47406D03*
X46697Y-46406D03*
G54D13*
X62100Y-56982D03*
G54D14*
X63100Y-56982D03*
X64100Y-56982D03*
X65100Y-56982D03*
X66100Y-56982D03*
X67100Y-56982D03*
X68100Y-56982D03*
X69100Y-56982D03*
X69100Y-53982D03*
X68100Y-53982D03*
X67100Y-53982D03*
X66100Y-53982D03*
X65100Y-53982D03*
X64100Y-53982D03*
X63100Y-53982D03*
X62100Y-53982D03*
G54D13*
X35947Y-51024D03*
G54D14*
X36947Y-51024D03*
G54D13*
X75553Y-51329D03*
G54D14*
X76553Y-51329D03*
G54D13*
X58780Y-34942D03*
G54D14*
X59780Y-34942D03*
X60780Y-34942D03*
X61780Y-34942D03*
X41486Y-48094D03*
X41486Y-45094D03*
G54D13*
X42945Y-34980D03*
G54D14*
X43945Y-34980D03*
G54D13*
X59657Y-39224D03*
G54D14*
X60657Y-39224D03*
X61657Y-39224D03*
X62657Y-39224D03*
X63657Y-39224D03*
X64657Y-39224D03*
X65657Y-39224D03*
X66657Y-39224D03*
X67657Y-39224D03*
X68657Y-39224D03*
M02*
